<?xml version="1.0" encoding="UTF-8"?>
<svg id="Layer_2" data-name="Layer 2" xmlns="http://www.w3.org/2000/svg" xmlns:xlink="http://www.w3.org/1999/xlink" viewBox="0 0 474.34 318.7">
  <defs>
    <style>
      .cls-1 {
        fill: #4a82c3;
      }

      .cls-2 {
        fill: #696;
      }

      .cls-3 {
        fill: #263d91;
      }

      .cls-4 {
        fill: url(#linear-gradient);
      }
    </style>
    <linearGradient id="linear-gradient" x1="78.58" y1="174.2" x2="419.45" y2="174.2" gradientUnits="userSpaceOnUse">
      <stop offset="0" stop-color="#f9b72b"/>
      <stop offset="1" stop-color="#e73925"/>
    </linearGradient>
  </defs>
  <g id="Layer_1-2" data-name="Layer 1">
    <g>
      <g>
        <path class="cls-3" d="M40.28,293.9c-.65-2.43-1.32-4.41-2.02-5.94-.81-1.77-1.79-3.27-2.94-4.49-1.16-1.22-2.46-2.17-3.91-2.83-1.62-.75-3.45-1.15-5.46-1.2-2.02-.05-4.21.24-6.57.86-1.94.52-3.64,1.19-5.08,1.99-1.44.81-2.64,1.77-3.6,2.89-.95,1.12-1.68,2.45-2.17,3.99-.5,1.54-.72,3.2-.66,5,.06,1.79.43,3.95,1.1,6.47l3.14,11.78,1.49-.4c0-.61.05-1.11.15-1.48.11-.38.29-.68.55-.92.26-.24.62-.44,1.1-.61.47-.17,1.06-.34,1.77-.53l19.52-5.21c.72-.19,1.33-.33,1.82-.41.49-.08.91-.09,1.26-.01.35.08.66.25.92.53.26.28.54.68.84,1.2l1.49-.4-2.74-10.28ZM12.29,302.26c-.14-.4-.34-1.07-.59-2-.52-1.95-.51-3.74,0-5.38.53-1.64,1.64-3.09,3.33-4.37,1.68-1.27,3.96-2.29,6.83-3.06,2.61-.69,4.9-1.01,6.86-.95,1.79.05,3.34.43,4.64,1.14.79.42,1.48,1,2.07,1.75.78,1,1.4,2.34,1.84,4,.29,1.1.45,1.79.48,2.07l-25.47,6.8Z"/>
        <path class="cls-3" d="M33.77,262.14l-1.54.14c.05,1.63-.69,2.52-2.22,2.66-.65.06-1.28.05-1.87-.04-.6-.09-1.22-.21-1.86-.37l-2.29-.56-.93-9.97,2.23-.84c.88-.33,1.61-.58,2.19-.74.58-.17,1.11-.27,1.59-.32.66-.06,1.18.09,1.57.44.4.36.68.94.85,1.74l1.54-.15-1.2-12.88-1.54.15c-.08.68-.25,1.22-.52,1.62-.27.4-.64.74-1.11,1.02-.46.28-1.27.65-2.4,1.1L.84,255.27l.58,6.24,26.83,7.31c1.15.3,2.03.6,2.65.91.63.3,1.13.65,1.52,1.06.38.4.63.89.74,1.46l1.54-.15-.93-9.96ZM7.6,259.89l12.79-4.96.79,8.41-13.58-3.45Z"/>
        <path class="cls-3" d="M19.78,221c.22-.4.59-.78,1.12-1.13.52-.35,1.4-.75,2.63-1.21l4.13-1.52c2.55-.95,4.48-1.83,5.8-2.64l.68-9-1.55-.11c-.22.87-.71,1.61-1.47,2.2-.76.59-1.87,1.16-3.34,1.71l-3.29,1.23c-1.32.51-2.43,1.11-3.32,1.81-.89.69-1.63,1.59-2.21,2.71l-.24-.02c-.52-1.57-1.11-2.85-1.76-3.81-.66-.97-1.51-1.76-2.56-2.38-1.05-.62-2.34-.99-3.87-1.1-1.17-.09-2.2-.02-3.1.22-.91.24-1.71.61-2.42,1.12-.7.51-1.3,1.16-1.8,1.93-.6.93-1.08,2.02-1.44,3.29-.35,1.27-.6,2.82-.74,4.66l-1.03,13.62,1.55.12c.2-.58.41-1.03.63-1.35.22-.32.49-.55.81-.69.33-.14.74-.21,1.24-.21.5-.01,1.12.02,1.85.08l20.15,1.52c.74.06,1.36.13,1.85.21.49.09.88.22,1.19.41s.54.46.69.8c.16.35.29.82.4,1.41l1.54.12.93-12.27-1.54-.12c-.28.83-.57,1.38-.88,1.67-.3.29-.69.48-1.17.55-.47.07-1.3.07-2.46-.02l-7.53-.57.1-1.36c.07-.85.21-1.48.43-1.88ZM16.69,221.72l-.17,2.31-13-.98c0-.43.05-1.31.15-2.65.15-1.96.8-3.4,1.93-4.32,1.14-.91,2.76-1.29,4.88-1.13.97.07,1.85.23,2.65.47.79.24,1.47.62,2.04,1.14.56.52.98,1.2,1.25,2.03.28.84.37,1.88.27,3.13Z"/>
        <path class="cls-3" d="M43.29,196.98c-.48-1.33-1.13-2.45-1.95-3.35-.67-.77-1.49-1.38-2.46-1.85-.97-.47-2.28-.88-3.93-1.22l-22.98-4.85c-.88-.18-1.52-.35-1.93-.5-.42-.15-.75-.33-.99-.53-.25-.2-.44-.47-.57-.81-.14-.34-.22-.85-.26-1.53l-1.51-.32-2.54,12.04,1.52.32c.27-.55.54-.97.8-1.26.26-.28.56-.48.9-.57.34-.1.76-.11,1.25-.05.5.07,1.11.17,1.83.32l25,5.27c1.2.25,2.12.49,2.73.72.62.23,1.11.49,1.49.78.38.3.7.71.97,1.24.28.52.52,1.3.74,2.32l3.06-.56c-.2-2.16-.59-4.03-1.17-5.61Z"/>
        <path class="cls-3" d="M39.47,155.76l-1.05,3.03c.83.59,1.48,1.09,1.94,1.5.45.4.8.76,1.06,1.07.26.32.48.65.67,1.01.19.35.32.7.38,1.03.07.34.07.7.01,1.08-.05.37-.17.82-.35,1.34l-1.67,4.8-11.82-4.11,1.01-2.92c.25-.7.52-1.18.83-1.46.32-.28.74-.47,1.28-.56.54-.1,1.27-.1,2.2-.01l.87-2.5-8.99-3.13-.87,2.51c.82.53,1.41.99,1.75,1.39.34.39.54.8.6,1.23.05.44-.03.98-.26,1.63l-1.01,2.92-10.63-3.7,1.68-4.82c.39-1.14.82-1.89,1.27-2.26.45-.38.98-.65,1.6-.81.61-.17,1.7-.25,3.27-.25l1.06-3.04-7.04-2.44-7.64,21.96,1.46.5c.35-.51.66-.89.96-1.14.29-.25.62-.41.96-.46.35-.05.77-.01,1.26.11.48.13,1.07.32,1.76.56l19.09,6.63c.71.25,1.28.47,1.73.68.45.21.8.44,1.05.7s.4.58.46.95c.06.38.07.87.03,1.46l1.46.51,7.57-21.76-7.94-3.23Z"/>
        <path class="cls-3" d="M54.18,126.62l-1.51,2.84c.74.71,1.3,1.3,1.69,1.77.38.47.68.88.88,1.23.21.35.38.71.51,1.09.13.38.21.74.22,1.09.01.34-.04.69-.15,1.06-.12.36-.3.79-.56,1.27l-2.38,4.49-11.06-5.87,1.45-2.73c.35-.65.7-1.09,1.05-1.32.35-.23.8-.35,1.35-.36.54,0,1.26.1,2.17.33l1.24-2.34-8.4-4.46-1.25,2.34c.74.65,1.24,1.2,1.52,1.64.28.44.41.88.4,1.32-.01.43-.17.95-.5,1.56l-1.45,2.73-9.93-5.27,2.39-4.52c.57-1.06,1.1-1.74,1.61-2.04.5-.3,1.07-.48,1.7-.55.63-.08,1.72,0,3.27.25l1.51-2.84-6.58-3.49-10.91,20.53,1.37.73c.41-.45.79-.78,1.12-.99.33-.2.67-.3,1.02-.3s.76.1,1.22.3c.46.2,1.01.47,1.66.82l17.85,9.47c.66.36,1.2.67,1.61.94.41.27.72.56.93.85.2.3.31.63.31,1.01s-.07.87-.2,1.45l1.36.73,10.81-20.35-7.34-4.41Z"/>
        <path class="cls-3" d="M72.01,100l-1.91,2.58c.56.63,1.13,1.35,1.72,2.14.59.8,1,1.53,1.23,2.2.24.67.3,1.3.2,1.91-.1.61-.42,1.28-.96,2l-2.7,3.66-18.76-13.91c-.6-.44-1.08-.84-1.44-1.17-.37-.34-.62-.67-.76-1-.15-.33-.19-.69-.14-1.06s.18-.82.39-1.37l-1.25-.92-7.32,9.88,1.24.92c.48-.38.9-.65,1.25-.8.36-.15.71-.2,1.06-.15s.74.21,1.16.48c.43.27.93.62,1.52,1.06l16.21,12.02c.61.44,1.09.83,1.46,1.16.37.33.63.66.79.98.16.32.21.68.16,1.06s-.18.85-.4,1.41l1.24.92,13.31-17.94-7.3-6.06Z"/>
        <path class="cls-3" d="M92.02,90.24c-.39.25-.75.44-1.07.56-.32.12-.62.18-.89.17-.27-.01-.55-.08-.83-.22-.28-.14-.6-.36-.96-.66-.36-.3-.74-.64-1.13-1.01l-14.63-13.94c-.63-.61-1.09-1.09-1.38-1.44-.28-.36-.47-.69-.57-1-.09-.31-.11-.64-.04-1,.07-.35.26-.82.58-1.4l-1.12-1.07-8.49,8.91,1.12,1.07c.52-.33.97-.54,1.34-.66.37-.11.72-.12,1.07-.02.34.11.7.31,1.08.62.38.3.84.71,1.38,1.23l14.64,13.96c.55.51.98.96,1.3,1.33.33.38.55.73.67,1.07.12.34.12.7.02,1.06-.1.37-.29.82-.58,1.34l1.12,1.07,8.49-8.91-1.12-1.06Z"/>
        <path class="cls-3" d="M94.82,65.26l19.6,7.71,4.66-3.7-16.25-20.44c-.61-.77-1.03-1.37-1.25-1.8-.22-.43-.34-.8-.34-1.09-.01-.3.05-.58.16-.85.11-.27.35-.68.72-1.23l-.97-1.21-6.93,5.51.96,1.21c.62-.25,1.08-.4,1.4-.45.31-.04.6-.03.87.05.28.09.59.28.93.59.34.3.83.85,1.46,1.65l2.72,3.41c2.75,3.46,5.35,6.6,7.81,9.42l-.29.23c-1.36-.68-2.84-1.36-4.46-2.06-1.61-.7-2.9-1.24-3.86-1.63l-15.47-6.12-7.43,5.91.96,1.21c.79-.34,1.4-.5,1.83-.47.44.04.84.2,1.19.48.36.29.9.89,1.63,1.81l12.62,15.87c.46.57.82,1.06,1.08,1.47.27.41.43.79.5,1.14.07.36.04.71-.11,1.07-.15.35-.4.77-.75,1.25l.96,1.21,6.94-5.51-.97-1.21c-.79.35-1.4.52-1.8.49-.41-.02-.81-.18-1.19-.47-.39-.3-.94-.9-1.67-1.82l-4.7-5.91c-2.32-2.92-4.59-5.65-6.8-8.18l.16-.13c1.4.68,3.43,1.54,6.08,2.59Z"/>
        <path class="cls-3" d="M145.14,43.43c-.43-.78-.72-1.42-.86-1.9-.15-.48-.17-.92-.07-1.31.11-.4.45-.88,1.02-1.46l-.74-1.36-10.53,5.75.74,1.36c.69-.15,1.18-.21,1.49-.2.31.01.6.08.86.22s.55.42.86.83c.31.4.76,1.13,1.32,2.17l.43.78c.86,1.58,1.2,2.89,1.02,3.92-.18,1.04-.88,1.88-2.09,2.54-1.22.67-2.51.74-3.87.22-1.36-.52-2.72-1.55-4.09-3.09s-2.71-3.51-4.02-5.91c-1.52-2.79-2.47-5.25-2.86-7.4-.39-2.15-.29-3.92.3-5.32.59-1.4,1.56-2.47,2.92-3.21,1-.54,1.9-.84,2.71-.88.81-.04,1.58.14,2.33.55.74.4,1.59,1.09,2.53,2.07l2.82-1.54-3.19-5.84c-2.91.65-5.86,1.79-8.87,3.43-1.78.97-3.3,2.15-4.56,3.55-1.26,1.39-2.19,3.02-2.78,4.88-.59,1.86-.72,3.93-.39,6.21.34,2.27,1.18,4.66,2.55,7.15,2.59,4.75,5.51,7.75,8.75,9.01,3.25,1.27,6.87.8,10.87-1.38,2.12-1.16,3.71-2.68,4.8-4.57l2.21.72,2.62-2.24-4.23-7.75Z"/>
        <path class="cls-3" d="M207.4.94l-9.53,2.16.34,1.5c.79-.11,1.43-.02,1.9.26.47.29.8.83.98,1.62.11.5.17,1.12.18,1.87.01.74-.02,1.49-.07,2.24l-1.33,16.56-10.62-22.11-5.16,1.17-1.3,24.8-7.54-14.99c-.83-1.61-1.33-2.82-1.52-3.63-.14-.64-.06-1.18.24-1.61.3-.44.84-.79,1.61-1.06l-.34-1.51-12.3,2.78.34,1.51c.51.01.96.1,1.34.27.37.17.74.47,1.11.9s.86,1.23,1.48,2.41l12.67,24.05,5.71-1.29,1.28-22.85,10.02,20.29,5.44-1.22,2.91-27c.16-1.43.33-2.46.5-3.09.18-.63.42-1.15.74-1.55.31-.4.73-.72,1.27-.97l-.35-1.51Z"/>
        <path class="cls-3" d="M240.11,23.51c-.25.99-.49,1.77-.71,2.34-.22.56-.43,1.02-.63,1.37-.2.35-.44.68-.7.98-.27.31-.55.55-.84.73-.29.18-.62.31-1,.39-.37.08-.83.13-1.38.14l-5.08.13-.33-12.51,3.09-.08c.74-.02,1.29.07,1.66.26.37.2.7.53.98,1,.27.47.54,1.15.78,2.05l2.65-.07-.26-9.51-2.64.07c-.21.96-.44,1.67-.69,2.13-.24.46-.56.79-.94.99-.39.21-.92.32-1.61.34l-3.09.08-.3-11.24,5.1-.14c1.21-.03,2.06.1,2.57.39.51.29.95.69,1.32,1.21.38.51.84,1.5,1.4,2.97l3.2-.08-.19-7.45-23.25.61.05,1.55c.59.14,1.06.3,1.4.49s.6.43.77.74c.18.31.29.71.34,1.21s.09,1.12.11,1.85l.53,20.2c.02.75.02,1.37-.02,1.86-.03.5-.13.9-.28,1.23-.16.32-.4.58-.73.77-.33.19-.78.37-1.36.54l.04,1.55,23.03-.62.22-8.56-3.21.09Z"/>
        <path class="cls-3" d="M272.06,25.39c-.27.8-.6,1.65-1.01,2.55-.4.91-.83,1.63-1.3,2.16-.46.53-.99.91-1.56,1.12-.58.21-1.32.26-2.22.15l-4.51-.55,2.83-23.17c.09-.74.19-1.36.31-1.84.11-.48.28-.87.49-1.15.22-.29.5-.51.85-.64.34-.14.81-.26,1.38-.34l.19-1.54-12.21-1.49-.19,1.54c.57.22,1.01.45,1.32.69.31.23.53.51.65.84.13.34.18.75.16,1.25s-.08,1.12-.17,1.85l-2.44,20.03c-.1.74-.19,1.36-.3,1.84-.11.48-.26.87-.46,1.17-.2.3-.48.52-.84.67-.36.14-.83.26-1.42.34l-.19,1.54,22.17,2.7,1.66-9.33-3.19-.39Z"/>
        <path class="cls-3" d="M289.7,5.8l-.41,1.49c.53.31.93.6,1.2.88.27.28.45.59.52.93.08.35.07.77-.03,1.26-.09.49-.24,1.09-.43,1.8l-5.37,19.46c-.19.72-.38,1.31-.56,1.78-.18.47-.39.84-.63,1.11-.25.26-.56.44-.93.53-.37.09-.86.13-1.45.11l-.41,1.49,12.15,3.35.41-1.49c-.5-.22-.89-.44-1.17-.65-.27-.21-.47-.42-.6-.63-.13-.2-.22-.45-.27-.74-.05-.29-.04-.65.03-1.07.07-.43.21-1.04.43-1.84l2.31-8.38,2.9.79c.69.19,1.19.45,1.51.76.32.32.54.77.65,1.36.11.59.13,1.38.05,2.38l2.55.71,2.72-9.86-2.56-.7c-.42.89-.83,1.56-1.22,2-.39.44-.8.72-1.25.83-.44.12-1.02.07-1.73-.12l-2.89-.8,3.17-11.5,4.36,1.2c1.16.32,1.94.7,2.34,1.12.41.43.71.94.92,1.54.2.6.36,1.69.46,3.25l3.1.86,1.98-7.19-21.85-6.02Z"/>
        <path class="cls-3" d="M331.95,52.39c-.22-.43-.34-.92-.36-1.46-.02-.55.05-1.43.2-2.64l3.34-27.16-5.74-2.49-19.32,20.01c-.82.86-1.51,1.48-2.07,1.89-.57.4-1.12.67-1.66.81-.54.14-1.09.13-1.64-.05l-.61,1.42,9.18,3.98.61-1.42c-1.45-.74-1.86-1.82-1.25-3.22.26-.61.57-1.15.93-1.63.36-.48.77-.96,1.22-1.45l1.59-1.74,9.18,3.98-.33,2.36c-.13.93-.26,1.69-.4,2.28-.14.59-.3,1.11-.49,1.55-.26.6-.64.99-1.15,1.16-.5.18-1.14.15-1.92-.09l-.62,1.42,11.87,5.14.62-1.41c-.56-.4-.95-.81-1.18-1.24ZM326.02,38.44l-7.74-3.36,9.55-10.24-1.81,13.6Z"/>
        <path class="cls-3" d="M373.64,47.12c-.1-.86-.38-1.7-.82-2.51-.52-.98-1.24-1.93-2.18-2.85-.94-.92-2.18-1.89-3.72-2.9l-11.43-7.49-.85,1.3c.42.45.71.86.88,1.2.18.35.25.7.21,1.05-.03.35-.17.75-.41,1.19-.24.44-.57.96-.97,1.58l-11.07,16.9c-.41.62-.77,1.13-1.08,1.52-.31.38-.62.66-.93.84-.32.18-.66.25-1.04.22-.38-.04-.85-.15-1.42-.33l-.85,1.29,10.29,6.75.85-1.3c-.59-.64-.93-1.17-1.04-1.58-.11-.4-.08-.83.09-1.28.16-.46.56-1.17,1.21-2.15l4.13-6.31,1.14.74c.72.47,1.2.9,1.44,1.28.25.39.4.89.45,1.53.05.63-.02,1.59-.21,2.88l-.67,4.36c-.4,2.69-.56,4.81-.49,6.35l7.55,4.94.85-1.29c-.66-.62-1.07-1.4-1.22-2.35-.16-.95-.12-2.2.11-3.75l.52-3.48c.19-1.4.2-2.66.02-3.78-.17-1.11-.61-2.2-1.3-3.25l.13-.19c1.63.3,3.03.4,4.19.29,1.16-.11,2.27-.47,3.32-1.09,1.05-.62,1.99-1.57,2.83-2.85.64-.98,1.08-1.92,1.31-2.83.23-.9.29-1.79.18-2.65ZM365.87,49.07c-.54.81-1.1,1.51-1.7,2.09-.59.58-1.25.99-1.98,1.23-.73.24-1.53.28-2.39.12-.86-.17-1.82-.59-2.86-1.28l-1.94-1.27,7.14-10.9c.37.21,1.11.68,2.24,1.41,1.65,1.08,2.6,2.34,2.85,3.78s-.2,3.04-1.36,4.82Z"/>
        <path class="cls-3" d="M388.61,54.55l-1.04,1.14c.33.51.55.96.67,1.33.11.37.13.72.04,1.06-.09.35-.29.71-.6,1.11-.31.39-.71.86-1.21,1.4l-13.64,14.9c-.51.55-.95,1-1.32,1.33-.36.33-.72.56-1.05.68-.34.13-.69.14-1.06.05-.37-.1-.82-.28-1.35-.56l-1.05,1.15,16.99,15.56,6.11-6.01-2.37-2.17c-.87.54-1.59.93-2.14,1.19s-1.02.44-1.41.55-.78.18-1.18.22c-.41.03-.77.01-1.11-.06-.33-.07-.66-.21-.99-.41-.32-.2-.69-.49-1.09-.86l-3.75-3.44,8.45-9.22,2.29,2.09c.54.49.87.94,1.01,1.34.13.39.14.86.01,1.39-.13.53-.41,1.2-.86,2.02l1.95,1.79,6.43-7.02-1.96-1.79c-.81.55-1.47.9-1.97,1.06-.49.16-.95.18-1.37.06-.42-.12-.88-.41-1.39-.88l-2.28-2.09,7.6-8.29,3.76,3.45c.89.81,1.42,1.5,1.58,2.06.16.56.2,1.16.11,1.79s-.44,1.66-1.07,3.11l2.37,2.17,5.04-5.5-17.15-15.7Z"/>
        <path class="cls-3" d="M434.69,105.83c-.61-1.12-1.31-2.25-2.11-3.39-1.37-1.94-2.85-3.45-4.46-4.53-1.6-1.07-3.23-1.62-4.88-1.62-1.65-.01-3.26.54-4.83,1.64-.96.68-1.71,1.44-2.26,2.29-.54.85-.94,1.79-1.19,2.82-.24,1.02-.35,2.12-.32,3.3.03,1.19.14,2.45.35,3.8.22,1.57.31,2.87.24,3.89s-.29,1.89-.66,2.59c-.38.7-.96,1.33-1.75,1.89-.86.6-1.7.92-2.53.95-.82.04-1.57-.15-2.25-.57-.68-.43-1.28-1.01-1.81-1.77-1.02-1.44-1.41-2.8-1.19-4.07.22-1.28.98-2.61,2.28-4l-1.85-2.63-5.9,4.16c.59,1.43,1.3,2.91,2.15,4.43.85,1.51,1.73,2.92,2.64,4.23,1.29,1.82,2.73,3.22,4.33,4.17,1.6.96,3.23,1.4,4.9,1.31,1.67-.08,3.29-.67,4.86-1.78,1.23-.86,2.16-1.83,2.78-2.91.63-1.08,1.02-2.35,1.17-3.8.15-1.46.09-3.26-.2-5.4-.24-1.76-.34-3.16-.3-4.2.04-1.04.23-1.9.57-2.57.34-.67.89-1.26,1.63-1.79.71-.5,1.44-.76,2.18-.78.74-.03,1.44.16,2.1.56.66.39,1.24.95,1.75,1.68.61.86.96,1.67,1.08,2.43.11.76,0,1.53-.32,2.33-.33.79-.92,1.67-1.76,2.62l1.85,2.63,5.56-3.91c-.63-1.54-1.25-2.88-1.85-4Z"/>
        <path class="cls-3" d="M450.65,133.39c-1.31-2.69-3.03-4.73-5.15-6.12-2.12-1.38-4.54-2.03-7.27-1.94-2.73.09-5.67.9-8.83,2.44-4.82,2.35-7.93,5.15-9.34,8.4-1.4,3.25-1.1,6.94.91,11.06.97,1.98,2.13,3.64,3.49,4.97,1.36,1.32,2.93,2.26,4.71,2.82,1.79.56,3.78.68,5.99.38,2.21-.3,4.64-1.1,7.29-2.39,4.75-2.32,7.82-5.12,9.2-8.4,1.38-3.28,1.05-7.02-1-11.22ZM448.32,138.53c-.53,1.36-1.63,2.72-3.3,4.09-1.68,1.36-3.91,2.72-6.71,4.09-1.71.83-3.33,1.5-4.86,1.99-1.54.5-2.94.76-4.22.8-1.27.04-2.39-.17-3.34-.65-.95-.47-1.69-1.25-2.22-2.33-1.02-2.1-.74-4.16.83-6.18,1.58-2.03,4.49-4.08,8.73-6.15,4.06-1.98,7.3-2.95,9.73-2.9,2.43.04,4.14,1.08,5.13,3.11.68,1.4.75,2.77.23,4.13Z"/>
        <path class="cls-3" d="M466.73,177.34c-.2-1.27-.52-2.67-.97-4.18-.88-2.99-2.29-5.36-4.22-7.11-1.94-1.76-4.27-2.84-7-3.23s-5.72-.11-8.98.85c-3.47,1.03-6.21,2.35-8.2,3.95-2,1.61-3.26,3.56-3.81,5.87-.54,2.3-.35,5.01.57,8.13.43,1.46.94,2.85,1.52,4.16.59,1.31,1.32,2.74,2.19,4.27l6.81-2.01-.91-3.08c-1.42.09-2.56.04-3.41-.15-.86-.2-1.57-.59-2.14-1.17s-1.02-1.41-1.34-2.51c-.64-2.14-.05-4.08,1.76-5.82,1.81-1.74,4.79-3.22,8.94-4.45,4.46-1.32,8.01-1.7,10.64-1.16,2.63.54,4.29,2,4.99,4.37.37,1.26.27,2.39-.3,3.41-.57,1.02-1.65,1.95-3.24,2.81l.91,3.06,6.51-1.92c-.01-1.45-.12-2.81-.32-4.09Z"/>
        <path class="cls-3" d="M470.08,193.11l-1.52.25c-.06.61-.16,1.09-.29,1.46-.13.36-.34.64-.63.86-.29.21-.68.37-1.15.49-.47.12-1.07.23-1.82.35l-19.96,3.22c-.75.12-1.36.19-1.86.22-.49.04-.91,0-1.25-.11-.34-.11-.63-.32-.86-.62-.23-.31-.47-.73-.71-1.28l-1.53.25,1.96,12.15,1.52-.25c.04-.47.1-.86.2-1.19.1-.34.23-.61.41-.82.17-.21.39-.38.67-.52.28-.14.65-.26,1.1-.37.46-.11.96-.2,1.5-.29l19.95-3.21c.86-.14,1.52-.21,1.98-.23.46-.01.84.04,1.14.15.3.11.57.3.81.57.24.27.5.71.77,1.32l1.53-.25-1.96-12.15Z"/>
        <path class="cls-3" d="M473.57,217.51l-1.55.05c-.14.6-.3,1.07-.48,1.41-.18.34-.43.6-.74.78-.3.17-.71.28-1.2.34-.5.06-1.12.1-1.85.12l-20.2.67c-.74.02-1.37.02-1.86-.01-.49-.03-.9-.12-1.23-.28-.32-.15-.58-.39-.77-.72-.19-.33-.38-.78-.55-1.35l-1.55.05.77,23.02,8.56.17-.11-3.21c-.99-.25-1.77-.48-2.34-.7-.57-.22-1.03-.42-1.38-.62-.35-.2-.68-.43-.99-.7-.3-.26-.55-.54-.73-.83-.18-.29-.31-.62-.39-.99-.09-.37-.14-.83-.15-1.38l-.17-5.08,12.51-.42.1,3.09c.02.74-.06,1.29-.25,1.66-.19.38-.52.71-.99.99-.47.28-1.15.54-2.05.79l.09,2.65,9.51-.32-.09-2.64c-.96-.21-1.67-.43-2.13-.67s-.8-.56-1-.94c-.21-.39-.33-.92-.35-1.61l-.1-3.09,11.24-.37.17,5.1c.04,1.21-.08,2.06-.37,2.57-.29.51-.69.95-1.2,1.33-.51.38-1.5.85-2.97,1.41l.11,3.21,7.45-.24-.77-23.24Z"/>
        <path class="cls-3" d="M465.79,252.11l-.4,3.19c.67.26,1.39.57,2.14.93.75.36,1.33.75,1.75,1.18.42.42.71.89.86,1.41.16.53.17,1.25.06,2.18l-.24,1.89-23.18-2.91c-.75-.09-1.37-.19-1.87-.3-.49-.11-.9-.28-1.2-.51-.3-.23-.52-.54-.65-.94-.13-.41-.21-.94-.23-1.6l-1.54-.2-1.61,12.84,1.54.19c.14-.53.3-.95.47-1.25.17-.3.35-.53.54-.69.18-.15.41-.28.69-.37s.64-.13,1.07-.13c.43.01,1.06.07,1.88.17l23.19,2.91-.21,1.67c-.08.64-.18,1.15-.3,1.53-.12.39-.27.71-.44.95-.17.25-.39.47-.65.68-.26.2-.58.39-.96.55-.37.17-.82.3-1.33.41-.52.11-1.33.25-2.42.41l-.4,3.18,8.17,1.03,3.43-27.37-8.16-1.03Z"/>
        <path class="cls-3" d="M466.86,290.58c-.16.36-.32.63-.48.81-.17.18-.43.35-.77.52-.34.16-.87.33-1.59.49-.61.15-1.54.32-2.79.52l-14.66,2.27-6.16-1.82c-.73-.22-1.33-.43-1.81-.62-.47-.2-.83-.44-1.09-.71-.27-.27-.42-.62-.48-1.03-.06-.42-.05-.95.03-1.59l-1.48-.44-3.68,12.4,1.48.44c.23-.5.46-.89.68-1.16.21-.27.43-.46.64-.59.2-.13.45-.21.74-.25.29-.05.65-.03,1.08.05.42.07,1.03.23,1.83.46l6.15,1.83,10.22,10.05c.91.89,1.64,1.65,2.19,2.28.54.64.94,1.16,1.18,1.58.24.41.41.77.48,1.08.08.31.11.68.08,1.11l1.48.44,2.67-9.01-1.48-.44c-.19.55-.49.93-.89,1.14-.4.22-.86.25-1.4.09-.54-.16-1.06-.4-1.56-.72s-1.1-.8-1.81-1.45l-7.03-6.56,9.58-1.29c1.02-.16,1.83-.25,2.43-.27.59-.03,1.08.01,1.47.13.99.29,1.39,1.04,1.2,2.24l1.48.44,3.55-11.98-1.48-.44Z"/>
      </g>
      <path class="cls-1" d="M403.62,297.44l-78.56-80.46c-1.55-1.59-3.65-2.5-5.87-2.55-3.59-.08-9.28-.58-13-2.77-3.88-2.28-11.29-8.24-15.74-11.92-2.22-1.83-5.34-2.09-7.84-.66l-11.93,6.85c-2.81,1.61-6.33,1.35-8.87-.66l-46.31-36.65c-1.65-1.31-4.03-1.15-5.49.37-7.7,8.02-30.45,31.41-36.92,34.5-7.83,3.75-19.07,32.81-33.71,33.6h-12.93l-50.24,54.65c-.25.28.13.68.42.44l49.99-42.13,29.87,12.25-5.36-7.66s15.15-30.72,25.36-33.44c10.21-2.73,32.68-40.51,32.68-41.54s-1.98-7.14,7.49,7.49c7.49,11.58-.34,21.79,2.04,24.17,2.39,2.39,10.56.68,4.77,7.49-5.79,6.81,7.41,3.07,13.75,3.75,6.34.68,2.93,8.51-15.79,19.06-18.86,10.63-13.62,18.38-13.62,18.38,0,0,26.92-6.44,41.87-17.02l30.3-27.23s3.06-9.53,8.85,1.02c5.79,10.55,14.64,20.77,11.24,30.64,0,0,12.59.68,23.14,0,0,0-4.08,4.42-2.04,7.49,2.04,3.06,14.22,6.97,16,20.76q1.36,10.56,17.36,12.6c12.69,1.62,38.02,8.38,47.95,11.11,1.14.31,1.96-1.08,1.14-1.93ZM258.49,217.06c-.23.31-.62.45-1,.54-2.48.63-5.24.09-7.29-1.44-1.18-.87-2.19-2.07-3.6-2.46-1.4-.39-2.89.11-4.32-.05-2.32-.26-4.08-2.12-5.62-3.86-3.11-3.51-6.22-7.01-9.33-10.52-.32-.36-.66-.77-.63-1.25.14-2.23,3.44-2.2,2.78-5.59-.35-1.74-1.84-3.15-2.17-4.8,2.36,1.5,4.22,4.29,6.06,6.37,3.47,3.9,6.96,7.76,10.16,11.89,3.17,4.09,6.84,8.75,12.01,8.99.76.03,1.56-.03,2.24.3.69.34,1.16,1.26.71,1.88ZM359.11,286.01c-3.67-1.36-7.36-2.73-10.65-4.83-7.74-4.94-12.44-13.34-16.83-21.4,2.34-.7,4.9-.68,7.23.07-3.21-5.59-6.4-11.2-9.65-16.77,5.28.71,6.71,4.03,9.73,7.84,4.87,6.17,8.02,8.3,14.61,12.47,1.46.93,2.49,2.39,3.47,3.82,2.55,3.66,5.09,7.33,7.63,10.99,2.82,4.08,5.82,8.31,10.2,10.64-5.32.95-10.68-.96-15.74-2.83Z"/>
      <g>
        <path class="cls-2" d="M233.15,305.79v-27.09l-.81.12-.94.19-.44.37-.19.94-.31,2.38-.06.94-.13-.63-.06-.62c-.09-.17-.13-.42-.13-.75-.09-.17-.13-.42-.13-.76l-.32-1.12c-.08-.17-.25-.33-.51-.5l-1.27.06c-.3,0-.51.06-.64.19l-.32.38v5.64l-2.05,1.44-3.83,2.92.63,2.82,1.56-1.19,1.35-1c.5-.37.91-.6,1.23-.69l1.11-.56v18.09h2.21l1.02-5.01.19,1.13c.08.5.12,1.02.12,1.56l.19,1.31c.04.09.17.21.38.38l1.52.06c.12,0,.31-.08.57-.25.12-.16.14-.41.06-.75ZM217.25,276.13l1.26,1.88h19.58v-1.88h-20.84ZM215.81,293.87c2.63-2.13,3.95-4.79,3.95-7.96,0-.63-.04-1.15-.13-1.57-.29-1.55-.9-2.99-1.81-4.33-1.13-1.62-2.76-2.98-4.88-4.07-1.63.17-2.88.54-3.76,1.13l2.19,1.56.94.94-.37.06-2.51-1.44c-.29-.16-.69-.33-1.19-.5-.37.09-.75.32-1.12.69l-2.01,1.88.19.19.19.12h.25c1.84,0,3.65.92,5.44,2.76,1.8,1.83,2.7,3.63,2.7,5.38,0,.83-.19,1.67-.57,2.5-.75,1.75-2.17,3.03-4.25,3.82-.88.33-1.86.5-2.94.5-.59,0-1.32-.25-2.19-.75-1.42-1.04-2.47-1.86-3.13-2.44l-1.88,1.87,2.82,2.26v.5l-4.07-2.32-.19.06-.19.19-.25.32-.19.43-.18.75-.25.57,19.33,12.64c.67,0,1.3-.52,1.88-1.57l-3.13-2.87.31-.38,3.7,2.57,1.25-1.95-12.48-8.6c3.26,0,6.1-.98,8.53-2.94ZM195.79,276.13v1.88h7.45l2.25-1.88h-9.7Z"/>
        <path class="cls-2" d="M215.63,267.12c-.5-.42-1.25-1.09-2.25-2-1.42-1.34-2.86-2.88-4.32-4.64l-3.51,1.26,2.82,3.5-.31.25-4.07-2.75-2.07,1.94c4.97,4.17,12.23,7.99,21.78,11.45h2.13l2.88-1.44c-4.51-1.79-8.87-4.32-13.08-7.57Z"/>
        <path class="cls-2" d="M265.5,278.76l-.94.19c-.71.2-1.06,1.75-1.06,4.63l-.38.06-.12-.63-.06-.62c-.09-.17-.13-.42-.13-.75-.08-.17-.12-.42-.12-.76l-.32-1.12c-.08-.17-.25-.33-.5-.5h-1.5l-.37.31v9.14c-.75,2.54-1.42,4.44-2,5.69-.83,1.75-1.75,3.26-2.74,4.51-2.04,2.54-4.16,3.81-6.36,3.81-1.2,0-2.24-.77-3.12-2.31-.87-1.54-1.3-3.38-1.3-5.51,0-3,.58-5.57,1.74-7.69,1.16-2.13,2.55-3.2,4.17-3.2,1,.13,1.83.57,2.49,1.32l.94,1.44.56,1.75.19.88.18.62.13.44.18.06.88-.31,1.18-.38c.12-.08.27-.25.43-.5l-.25-1.56-.75-1.69.38-.19.56.82.5.62.57,1,.25.38.75-.75c.08-.09.12-.25.12-.5,0-.8-.14-1.61-.44-2.44-.41-1.17-1.12-2.15-2.12-2.95-1-.79-2.11-1.19-3.32-1.19-2.34.05-4.36.42-6.07,1.13-2.88,1.21-5.18,3.09-6.91,5.63-1.74,2.55-2.6,5.39-2.6,8.51,0,1.55.21,2.93.62,4.13.63,1.88,1.75,3.44,3.35,4.67,1.61,1.23,3.39,1.84,5.35,1.84,1.09,0,2.21-.27,3.38-.81,3.84-1.84,6.86-5.34,9.08-10.51v11.89h2.29l.64-5.57.26.06v1.25l.19,1.69.33,1.5c.08.13.24.27.46.44l1.56.06.26-.06c.09,0,.18-.08.26-.25v-27.78l-.75.06ZM236.09,276.13v1.88h35.23v-1.88h-35.23Z"/>
        <path class="cls-2" d="M279.2,278.32l-.76.12c-.55.26-.91.8-1.08,1.63l-.5,2.94c-.13-.21-.23-.54-.32-1l-.25-1.44-.32-1.25c-.04-.17-.17-.33-.38-.5l-1.2.06c-.25,0-.44.07-.56.19v28.1l1.56.06c.29-.04.52-.23.69-.56.08-.13.16-.42.25-.88l.12-.94.44-2.69.25,1.38.38,2.31.06.57.31.12,1.69.06.5-28.34-.88.06ZM269.19,275.63v2h15.71v-2h-15.71Z"/>
      </g>
      <path class="cls-4" d="M309.09,98.85h-10.42c-18.77-8.36-39.57-13.01-61.45-13.01s-42.68,4.65-61.45,13.01h-12.78c-.68,0-1.29.28-1.74.73-.45.44-.72,1.06-.72,1.74,0,1.36,1.1,2.47,2.46,2.47h146.1c.69,0,1.3-.28,1.75-.73s.72-1.06.72-1.74c0-1.36-1.1-2.47-2.47-2.47ZM373.53,171.48h-76.27l-8.49-2.91,16.14-.44h76v-5.45h-11.98c-2.62-4.63-5.48-9.11-8.57-13.42l-95.2-.82-8.07-4.57h102.46c.87,0,1.65-.35,2.21-.91.57-.57.92-1.35.92-2.21,0-1.73-1.4-3.13-3.13-3.13h-8.4c-9.68-11.09-20.96-20.76-33.48-28.63v.15h-160.9v-.15c-16.54,10.41-30.92,23.93-42.33,39.74h-33.33c-.69,0-1.33.28-1.79.74-.46.46-.74,1.09-.74,1.79,0,1.4,1.14,2.53,2.53,2.53h43.71c.15,0,.3-.01.45-.04h55.57l-8.07,4.57-65.03.55c-5.94,9.82-10.8,20.36-14.4,31.47h-6.15c-.55,0-1.04.22-1.39.58-.36.35-.58.84-.58,1.39,0,1.09.88,1.97,1.97,1.97h69.49l-8.07,4.57-57.89.5c-3.1,12.06-4.75,24.71-4.75,37.74,0,8.24.66,16.33,1.93,24.21,13.9-15.13,29.72-32.33,29.72-32.33,2.27-2.47,5.47-3.88,8.83-3.88h12.37c3.5-.77,10.83-11.5,13.98-16.1,5.12-7.49,9.17-13.42,14.98-16.26,3.11-1.83,14.9-12.6,33.57-32.05,3.02-3.14,7.25-4.95,11.61-4.95,3.62,0,7.17,1.24,10,3.49l44.14,34.93,9.53-5.48c2.88-1.64,6.13-2.51,9.42-2.51,4.38,0,8.65,1.54,12.03,4.32,7.7,6.36,12.37,9.77,14.19,10.83.5.28,2.76,1.02,7.19,1.12,5.39.12,10.43,2.32,14.19,6.17l52.68,53.96c1.41-8.28,2.14-16.79,2.14-25.47,0-23.51-5.36-45.77-14.94-65.61ZM416.73,162.68h-31.73v5.45h31.73c.75,0,1.43-.31,1.92-.8s.8-1.17.8-1.92c0-1.51-1.22-2.73-2.72-2.73Z"/>
    </g>
  </g>
</svg>