<?xml version="1.0" encoding="UTF-8"?>
<svg id="Layer_2" data-name="Layer 2" xmlns="http://www.w3.org/2000/svg" viewBox="0 0 1760.04 634.93">
  <defs>
    <style>
      .cls-1 {
        fill: #ded0b5;
      }

      .cls-2 {
        fill: none;
      }
    </style>
  </defs>
  <g id="Design">
    <g>
      <path class="cls-2" d="M716.9,388.08c0-5.48-3.66-8.91-10.14-8.91h-6.78v17.81h6.78c6.49,0,10.14-3.6,10.14-8.91Z"/>
      <path class="cls-2" d="M1322.24,390.56c-7.61,0-13.21,5.9-13.21,13.92s5.6,13.86,13.21,13.86,13.15-5.9,13.15-13.86-5.6-13.92-13.15-13.92Z"/>
      <polygon class="cls-2" points="903.96 239.4 892.3 280.05 915.97 280.05 903.96 239.4"/>
      <path class="cls-2" d="M1109.35,390.74c-6.66,0-11.44,4.72-12.56,10.79h24.65c-1.36-7.61-6.61-10.79-12.09-10.79Z"/>
      <path class="cls-2" d="M456.68,126.37c-24.06-16.4-64.46-1.39-81.94,19.03,6.93-2.82,13.5-5.72,20.16-8.29,19.83-7.48,40.29-13.98,61.78-10.73Z"/>
      <path class="cls-2" d="M1439.97,235.62c0-9.95-1.54-27.27-23.33-27.27h-1.89c-6,0-8.4,1.72-8.4,9.95v47h13.55c16.64,0,20.07-17.5,20.07-29.67Z"/>
      <path class="cls-2" d="M279.66,180.43c-3.93-31.46-31.85-74.14-66.17-75.98,30.82,14.32,49.79,47.57,66.17,75.98Z"/>
      <path class="cls-2" d="M739.6,390.56c-7.61,0-13.21,5.9-13.21,13.92s5.6,13.86,13.21,13.86,13.15-5.9,13.15-13.86-5.6-13.92-13.15-13.92Z"/>
      <path class="cls-2" d="M858.49,390.56c-7.61,0-13.21,5.9-13.21,13.92s5.6,13.86,13.21,13.86c6.9,0,12.8-4.78,12.8-13.86s-5.9-13.92-12.8-13.92Z"/>
      <path class="cls-2" d="M775.52,390.56c-7.61,0-13.21,5.9-13.21,13.92s5.6,13.86,13.21,13.86,13.15-5.9,13.15-13.86-5.6-13.92-13.15-13.92Z"/>
      <path class="cls-2" d="M967.23,379.18h-7.43v38.57h7.43c11.15,0,19.29-7.78,19.29-19.28s-8.14-19.29-19.29-19.29Z"/>
      <path class="cls-2" d="M1010.05,390.56c-7.61,0-13.21,5.9-13.21,13.92s5.6,13.86,13.21,13.86c6.9,0,12.8-4.78,12.8-13.86s-5.9-13.92-12.8-13.92Z"/>
      <path class="cls-2" d="M823.58,390.74c-6.66,0-11.44,4.72-12.56,10.79h24.65c-1.36-7.61-6.61-10.79-12.09-10.79Z"/>
      <path class="cls-2" d="M1074.8,390.74c-6.66,0-11.44,4.72-12.56,10.79h24.65c-1.36-7.61-6.61-10.79-12.09-10.79Z"/>
      <path class="cls-2" d="M1198.11,390.56c-7.61,0-13.21,5.84-13.21,13.68s5.54,13.56,13.39,13.56c6.66,0,12.62-4.25,12.62-13.33s-5.9-13.92-12.8-13.92Z"/>
      <path class="cls-2" d="M1644.99,390.56c-6.84,0-12.74,4.78-12.74,13.92s5.9,13.86,12.74,13.86c7.67,0,13.27-5.9,13.27-13.86s-5.6-13.92-13.27-13.92Z"/>
      <path class="cls-2" d="M1563.61,379.18h-7.14v18.87h7.14c6.96,0,10.91-3.36,10.91-9.44s-3.95-9.44-10.91-9.44Z"/>
      <path class="cls-2" d="M1009.62,236.48c0-19.55-3.26-27.27-11.49-27.27h-1.2c-3.43,0-6.35,2.06-6.35,10.12v44.94h2.4c14.07,0,16.64-9.26,16.64-27.79Z"/>
      <path class="cls-2" d="M1344.95,324.13c19.55,0,24.87-27.96,24.87-59s-5.66-59.69-25.21-59.69-24.7,27.96-24.7,59,5.66,59.69,25.04,59.69Z"/>
      <path class="cls-2" d="M1736.98,390.74c-6.66,0-11.44,4.72-12.56,10.79h24.65c-1.36-7.61-6.61-10.79-12.09-10.79Z"/>
      <path class="cls-2" d="M1681.02,390.56c-7.61,0-13.21,5.9-13.21,13.92s5.6,13.86,13.21,13.86,13.15-5.9,13.15-13.86-5.6-13.92-13.15-13.92Z"/>
      <path class="cls-1" d="M775.52,388.32c-8.91,0-15.51,6.9-15.51,16.16s6.61,16.1,15.51,16.1,15.45-6.9,15.45-16.1-6.6-16.16-15.45-16.16ZM775.52,418.34c-7.61,0-13.21-5.9-13.21-13.86s5.6-13.92,13.21-13.92,13.15,5.9,13.15,13.92-5.6,13.86-13.15,13.86Z"/>
      <path class="cls-1" d="M1495.03,321.21h-2.92c-6,0-8.4-1.54-8.4-10.29v-92.28c0-8.75,2.4-10.29,8.4-10.29h2.92v-2.23h-31.05v2.23h3.43c5.83,0,7.89,1.54,7.89,10.29v92.28c0,8.75-2.06,10.29-7.89,10.29h-3.43v2.23h31.05v-2.23Z"/>
      <polygon class="cls-1" points="800.76 378.71 798.52 379.89 798.52 388.91 794.62 388.91 794.62 391.09 798.52 391.09 798.52 419.99 800.76 419.99 800.76 391.09 804.89 391.09 804.89 388.91 800.76 388.91 800.76 378.71"/>
      <path class="cls-1" d="M350.58,96.36c-1.44,4.32-2.46,8.77-3.02,13.29-.49,3.94-.17,7.91.96,11.82.18.64.36,1.29.54,1.94,7.32-13.28,17.24-23.39,29.67-30.19,11.76-6.44,25.39-9.82,41.65-10.32,1.35-.04,2.79-.07,4.24-.07,2.96,0,6.07.09,9.5.28,14.42.86,28.28,3.4,40.51,5.64,2.84.53,5.58,1.03,8.22,1.49.34.06.7.12,1.08.18-29.7-18.25-62.7-31.65-97.89-39.09-1.76,5.41-3.86,10.49-6.31,15.22-7.3,14.13-17.3,24.33-29.14,29.8Z"/>
      <path class="cls-1" d="M820.09,320.36h-1.03c-5.83,0-8.06-3.26-8.06-10.46v-44.77h24.18v44.77c0,7.2-2.06,10.46-7.89,10.46h-1.2v3.09h39.79v-3.09h-1.03c-6,0-8.23-3.26-8.23-10.46v-90.22c0-7.03,2.23-10.46,8.23-10.46h1.03v-3.09h-39.79v3.09h1.2c5.83,0,7.89,3.6,7.89,10.46v41.68h-24.18v-41.68c0-7.2,2.23-10.46,8.06-10.46h1.03v-3.09h-39.62v3.09h.86c6,0,8.23,3.26,8.23,10.46v90.22c0,7.2-2.23,10.46-8.23,10.46h-.86v3.09h39.62v-3.09Z"/>
      <path class="cls-1" d="M288.85,94.69c15.64,14.55,26.01,31.88,29.98,50.13,1.05,4.84,1.65,9.72,1.8,14.61,1.28-4.96,1.91-9.88,1.63-14.71l-.02-.32v-.09c-.22-4.26-.89-8.58-2-12.85l-.46-1.37v-.33c-.04-.13-.08-.26-.12-.39-.1-.29-.18-.58-.25-.88-3.48-13.42-1.78-23-1.01-26.15,1.05-6.47,2.74-12.8,5.03-18.89-1.98-10.4-1.44-19.58,1.64-27.97,1.47-4.03,3.4-7.57,5.58-10.76-3.12-.1-6.25-.14-9.39-.14h-10.15c-31.35,0-61.62,4.64-90.16,13.27,3.6,1.05,7.16,2.19,10.67,3.43,22.42,7.87,42.2,19.42,57.22,33.41Z"/>
      <path class="cls-1" d="M431.48,175.12c-6.68,1.39-13.37,2.06-20.44,2.06-8.67,0-17.37-1.05-26.17-2.71-8.81-1.66-17.73-3.92-26.86-6.35-6.99,6.93-12.98,14.79-17.86,23.42-3.47,6.97-7.18,13.4-10.77,19.61l-.3.52c-6.72,11.66-13.84,25.13-13.16,37.64l.02.3v.08c.27,5.54,1.56,11.11,3.74,16.48.37-.09.73-.18,1.1-.29,1.24-.34,2.47-.71,3.69-1.12.82-.27,1.63-.56,2.44-.87.41-.16.81-.31,1.22-.47.81-.32,1.62-.65,2.42-1,8.05-3.46,15.88-8.17,23.54-12.78,5.86-3.53,11.73-7.06,17.59-10.59,5.88-3.54,11.77-7.09,17.66-10.63,11.75-7.07,23.51-14.16,35.26-21.22,2.71-1.64,5.84-3.53,9.41-5.04t0,0c.51-.21,1.03-.42,1.56-.62.92-.35,1.86-.67,2.84-.95.29-.08.58-.16.87-.23.17-.05.36-.1.54-.14.27-.06.54-.12.82-.18.06-.01.12-.02.17-.03,2.25-.46,4.52-.7,6.75-.7,7.95,0,14.81,2.84,20.98,6.83.54.35,1.08.71,1.61,1.08s1.06.74,1.58,1.13h0c.3.22.61.45.91.68,1.81,1.37,3.56,2.81,5.26,4.27.29.25.57.49.85.73.64.56,1.28,1.12,1.91,1.68.95.84,1.88,1.68,2.8,2.52.64.58,1.28,1.16,1.91,1.72.42.38.84.76,1.26,1.13h0c.42.37.83.74,1.25,1.11.21.18.41.36.63.54.41.36.83.72,1.25,1.07.29.24.57.48.86.72.54.44,1.07.87,1.6,1.29.23.18.47.37.7.54.46.36.93.7,1.39,1.04,3.01,2.19,6.03,3.91,9.09,4.84,1.77.53,3.73.83,5.82,1.01.3.03.6.05.91.07,1.09.08,2.2.13,3.33.17.57.02,1.14.03,1.72.06.29.01.58.02.87.03,3.15.09,6.41.18,9.82.57.63.07,1.25.15,1.88.23.39.06.77.11,1.16.17.77.12,1.53.25,2.28.4.38.07.75.15,1.13.23.31.06.61.13.92.2.89.2,1.78.42,2.66.65.3.08.59.16.89.25.49.13.98.28,1.47.43.15.04.3.08.45.13.52.16,1.03.32,1.54.49,1.15.39,2.28.79,3.4,1.22.55.21,1.11.44,1.66.65,2.76,1.14,5.46,2.4,8.1,3.78,1.05.55,2.1,1.11,3.13,1.69h0c1.03.59,2.06,1.18,3.09,1.79,1.45.86,2.88,1.74,4.3,2.65,3.59,2.28,7.1,4.66,10.57,7.06.96.67,1.92,1.34,2.88,2,11.05,7.68,21.49,14.93,32.87,18.61h.01c.79.26,1.61.5,2.43.74.81.23,1.63.46,2.47.69.31.08.62.16.92.25.29.08.58.16.88.23.54.15,1.09.29,1.63.43,1.53.41,3.08.84,4.64,1.33-16.14-65-52.71-121.92-102.52-163.55-12.39,12.32-23.48,22.24-33.9,30.31-19.77,15.33-37.36,24.2-55.34,27.91Z"/>
      <path class="cls-1" d="M870.99,388.91c0,2.24.06,4.54.12,6.78-2.01-4.36-6.96-7.37-12.74-7.37-8.61,0-15.39,6.72-15.39,16.16s6.78,16.1,15.39,16.1c5.72,0,10.67-3.01,12.74-7.37v6.78h2.12v-45.35h-2.24v14.27ZM858.49,418.34c-7.61,0-13.21-5.9-13.21-13.86s5.6-13.92,13.21-13.92c6.9,0,12.8,4.78,12.8,13.92s-5.9,13.86-12.8,13.86Z"/>
      <path class="cls-1" d="M1735.86,323.62c-15.61,0-27.44-11.66-30.53-45.63h-2.23l.86,47.34h1.89c1.03-7.03,2.57-10.98,4.97-10.98,1.54,0,2.74,1.2,4.12,2.57,3.26,2.92,8.58,8.4,21.1,8.4s24.01-12.35,24.01-31.22-10.29-27.79-27.1-34.13c-19.38-7.38-24.53-16.12-24.53-28.3,0-13.21,6.35-25.56,18.52-25.56,10.98,0,21.96,10.81,27.1,45.28h2.23l-.86-46.65h-1.89c-1.72,8.75-3.26,11.32-5.32,11.32-1.71,0-3.09-1.89-4.8-3.6-5.49-5.66-9.61-8.06-16.64-8.06-13.38,0-22.98,13.72-22.98,30.36,0,25.9,17.67,30.36,27.62,34.82,9.95,4.46,24.53,10.98,24.53,28.13s-8.75,25.9-20.07,25.9Z"/>
      <path class="cls-1" d="M623.03,292.17c-.22-.09-.45-.16-.67-.24-.28-.1-.56-.2-.84-.29-.26-.09-.51-.17-.77-.25-.34-.11-.67-.21-1.01-.31-.22-.07-.45-.13-.68-.2-.36-.11-.73-.21-1.1-.32-.16-.04-.31-.08-.46-.13-.3-.08-.6-.17-.91-.25-1.21-.34-2.44-.65-3.66-.98-1.03-.27-2.05-.55-3.07-.84-.51-.15-1.02-.3-1.53-.45-.5-.16-1.01-.31-1.51-.48h-.01c-.92-.3-1.83-.62-2.73-.95-.45-.17-.91-.34-1.36-.52-.45-.17-.9-.36-1.35-.54-.45-.18-.9-.37-1.34-.56-.45-.2-.89-.39-1.33-.59-.44-.2-.88-.4-1.32-.61-.44-.21-.87-.42-1.31-.64-.25-.12-.49-.24-.73-.36-.4-.2-.79-.39-1.17-.6-.12-.06-.23-.11-.35-.18-.55-.29-1.1-.58-1.64-.87h0c-.43-.23-.85-.47-1.27-.71-.43-.24-.85-.48-1.28-.73-.42-.24-.85-.49-1.27-.74-.84-.5-1.68-1.01-2.51-1.53-.84-.51-1.67-1.03-2.49-1.57-.41-.26-.83-.53-1.24-.81-.83-.54-1.65-1.08-2.47-1.63-.41-.27-.82-.55-1.23-.83-.41-.27-.82-.55-1.22-.83h0c-2.04-1.39-4.07-2.8-6.1-4.21h0l-2.43-1.69c-.1-.07-.2-.13-.3-.21-.91-.63-1.83-1.26-2.74-1.88-.61-.42-1.22-.83-1.83-1.25h0c-.81-.55-1.63-1.09-2.44-1.63-.41-.27-.82-.54-1.22-.81-.82-.54-1.64-1.06-2.46-1.58-.62-.39-1.24-.77-1.86-1.15-.62-.38-1.24-.76-1.87-1.13-.71-.42-1.42-.83-2.14-1.24-.15-.08-.3-.17-.44-.25-.4-.22-.79-.44-1.19-.66-.84-.46-1.69-.91-2.54-1.34h0c-.43-.22-.85-.43-1.28-.64-.43-.21-.86-.41-1.29-.62-.86-.41-1.72-.81-2.6-1.17-.38-.16-.75-.32-1.14-.48-.5-.21-1-.4-1.49-.6-.44-.17-.89-.34-1.33-.5-.45-.16-.89-.32-1.34-.48-.89-.31-1.8-.6-2.71-.86-.45-.13-.91-.26-1.37-.39-.86-.23-1.72-.45-2.6-.64-.11-.03-.22-.05-.33-.07-1.28-.28-2.58-.51-3.9-.7-.11-.02-.23-.03-.35-.04-.06-.01-.12-.02-.17-.02l-.1-.02c-.34-.04-.67-.09-1.01-.13-2.02-.23-4.05-.34-6.09-.41h-.12c-.49-.02-.99-.04-1.49-.05-1.01-.03-2.03-.06-3.05-.1-.53-.02-1.06-.03-1.59-.06-.26-.01-.51-.02-.77-.03-.51-.02-1.02-.05-1.54-.08-1.02-.07-2.04-.15-3.05-.26-2.28-.26-4.54-.66-6.74-1.33-5.02-1.52-9.6-4.3-13.95-7.62-.27-.21-.54-.41-.81-.63-.54-.43-1.08-.86-1.61-1.29-.27-.22-.54-.44-.8-.67-.53-.44-1.06-.89-1.59-1.34-.53-.45-1.05-.91-1.57-1.37h0c-.26-.23-.52-.46-.78-.69-.52-.46-1.04-.92-1.55-1.39-.26-.23-.52-.46-.78-.7-.51-.46-1.03-.93-1.54-1.39h0c-.51-.46-1.03-.92-1.54-1.39-.39-.35-.77-.69-1.16-1.03-.39-.34-.77-.68-1.15-1.01-.51-.44-1.02-.88-1.54-1.33-.77-.65-1.55-1.29-2.33-1.91-.39-.31-.78-.61-1.17-.91-.39-.3-.78-.59-1.17-.88-.26-.18-.53-.37-.79-.56-.53-.37-1.05-.74-1.58-1.09-.79-.51-1.59-1.01-2.4-1.47-.54-.31-1.08-.6-1.62-.87-.27-.14-.55-.27-.82-.4-.21-.09-.41-.19-.62-.28-.21-.1-.41-.18-.62-.27-.21-.09-.41-.17-.63-.25-.21-.08-.41-.16-.63-.23-.23-.08-.46-.16-.69-.23t-.01,0s-.03-.01-.05-.02c-.22-.07-.45-.15-.68-.21-.16-.05-.32-.09-.48-.14-.16-.04-.32-.08-.49-.13-.15-.04-.3-.07-.44-.11-.04-.01-.08-.02-.11-.03-.02,0-.04-.01-.07-.01-.22-.06-.44-.1-.65-.14-.15-.03-.29-.06-.43-.08-.13-.02-.26-.04-.39-.06-.18-.03-.36-.06-.54-.08-.1-.01-.2-.03-.29-.03,0,0-.02,0-.02,0-.24-.03-.49-.06-.73-.07-.26-.02-.51-.04-.78-.06-.08,0-.16,0-.24,0-.26-.01-.53-.02-.79-.02-1.45,0-2.95.15-4.48.46-1.15.24-2.27.57-3.37.97-.21.08-.41.15-.61.23-.21.08-.41.16-.61.25-.81.34-1.61.7-2.39,1.11-.2.1-.39.2-.59.3-1.76.91-3.47,1.94-5.16,2.96-23.5,14.15-46.99,28.31-70.49,42.46-.52.31-1.03.63-1.55.93-.73.44-1.45.87-2.19,1.31-.83.5-1.67,1-2.51,1.49-.84.49-1.68.98-2.52,1.47-.43.25-.84.49-1.27.73-.42.25-.84.48-1.27.72-.85.48-1.7.95-2.55,1.41-.43.23-.86.46-1.29.69-.3.16-.6.32-.9.48-.45.24-.9.48-1.35.7-.86.44-1.71.87-2.57,1.28-.35.17-.7.34-1.06.51-.04.02-.07.03-.11.05-.47.22-.95.44-1.41.66-.39.18-.77.36-1.16.53-.63.28-1.26.55-1.9.82-.89.37-1.78.73-2.68,1.08-.45.17-.89.34-1.35.51-.88.32-1.77.63-2.66.93-.04.02-.07.03-.11.03-.02,0-.04.01-.06.02-.2.06-.4.12-.59.18h0s0,0,0,0l107.04,70.56c-.23.06-.48.12-.71.18.24-.06.48-.12.72-.18.57-.15,1.14-.29,1.71-.44,1.71-.44,3.42-.91,5.13-1.4,9.53-2.71,18.97-5.96,28.82-9.36h0c1.77-.61,3.55-1.22,5.32-1.83,8.03-2.75,16.22-5.49,24.57-7.86.58-.17,1.16-.33,1.74-.49,1.16-.32,2.33-.64,3.5-.95,1.46-.39,2.93-.76,4.4-1.11,1.47-.35,2.94-.69,4.42-1.02,1.78-.39,3.56-.76,5.35-1.11,12.53-2.4,25.4-3.62,38.33-3.62,1.75,0,3.5.02,5.25.07,2.1.06,4.21.14,6.31.26.38.02.76.04,1.13.07,1.67.1,3.33.22,5,.37.17.02.33.03.5.04.73.06,1.47.13,2.19.21.36.03.72.07,1.08.11,1.3.13,2.6.28,3.9.44.04,0,.07,0,.11.01,1.66.21,3.3.43,4.94.68,1.68.25,3.36.52,5.03.81,2.51.44,5.01.92,7.51,1.44,1.66.35,3.32.72,4.97,1.11,1.65.39,3.29.81,4.93,1.23.82.22,1.64.44,2.46.66.82.22,1.63.45,2.44.69.81.23,1.62.48,2.43.72.81.25,1.62.5,2.42.75.6.19,1.21.39,1.81.58,1.21.39,2.4.79,3.6,1.21.6.21,1.19.42,1.79.63.79.28,1.58.57,2.37.86.7.26,1.39.52,2.09.79h0c-.04-.46-.07-.92-.11-1.37l-.03-.42c-.03-.3-.05-.59-.08-.89-.04-.55-.1-1.09-.15-1.64,0-.11-.02-.22-.03-.34-.01-.09-.02-.18-.03-.27,0-.04-.01-.1-.02-.14-.06-.69-.13-1.37-.2-2.06-.09-.87-.18-1.74-.27-2.62-.12-1.03-.24-2.07-.36-3.1-.12-.99-.25-1.99-.37-2.98-.14-1.08-.29-2.18-.44-3.26-.15-1.02-.3-2.04-.45-3.05-.15-.95-.29-1.88-.44-2.82-.02-.11-.03-.22-.05-.34-.16-1-.33-2-.5-2.99-.17-.99-.35-1.98-.53-2.97-.02-.11-.04-.22-.06-.33-.17-.93-.34-1.86-.52-2.79,0-.01,0-.02,0-.03-.2-1.01-.39-2.02-.6-3.03h0c-.35-.17-.7-.32-1.05-.46-.15-.06-.31-.13-.46-.19-.27-.11-.54-.21-.81-.31-.23-.09-.46-.17-.69-.25-.04-.02-.08-.03-.12-.04Z"/>
      <path class="cls-1" d="M1627.45,216.76v84.05c0,17.15-2.75,20.41-11.32,20.41h-.34v2.23h26.59v-2.23h-1.03c-9.6,0-11.15-3.43-11.15-20.41v-79.42l51.46,104.8h1.71v-97.25c0-15.78,2.57-20.58,11.15-20.58h.51v-2.23h-26.59v2.23h1.03c9.78,0,11.15,4.12,11.15,20.58v75.99l-48.71-98.8h-16.64v2.23c6.52,0,7.72,1.54,12.18,8.4Z"/>
      <path class="cls-1" d="M810.72,403.71h27.48c-.71-10.2-7.14-15.22-14.57-15.22-8.91,0-15.22,7.25-15.22,16.04s6.25,15.92,15.51,15.92c7.55,0,12.15-4.72,14.15-8.67l-1.95-1c-2.3,4.54-6.66,7.43-12.21,7.43-7.96,0-13.21-6.07-13.21-13.56v-.94ZM823.58,390.74c5.48,0,10.73,3.18,12.09,10.79h-24.65c1.12-6.07,5.9-10.79,12.56-10.79Z"/>
      <path class="cls-1" d="M765.37,324.64h2.92v-41.17c0-8.23,2.06-10.46,7.2-10.46h.86v-3.09h-39.79v3.09h3.26c5.49,0,8.23,3.77,8.23,10.46v16.64c0,15.78-3.09,21.78-10.46,21.78-14.41,0-16.64-22.47-16.64-57.12s4.29-57.29,16.98-57.29c11.15,0,21.44,13.55,26.93,43.91h3.09l-1.03-47h-2.57c-1.2,7.72-3.6,9.43-5.32,9.43-1.54,0-3.09-.86-4.97-2.4-4.8-4.29-10.29-7.03-16.81-7.03-21.78,0-39.62,25.73-39.62,61.06s16.98,59.52,39.62,59.52c7.89,0,13.21-3.95,17.67-9.43,1.37-1.54,2.74-3.43,4.12-3.43,2.92,0,4.63,5.66,6.35,12.52Z"/>
      <path class="cls-1" d="M9.69,282.63c.53-.39,1.06-.78,1.59-1.17,1.66-1.24,3.33-2.47,5.02-3.71.56-.41,1.13-.82,1.69-1.23.76-.55,1.51-1.09,2.27-1.63,2.28-1.63,4.6-3.23,6.97-4.79.44-.29.89-.58,1.34-.87,1.12-.72,2.25-1.42,3.39-2.11,1.15-.69,2.3-1.36,3.47-2.02,1.17-.66,2.36-1.3,3.56-1.92.6-.31,1.21-.62,1.82-.92.76-.37,1.53-.74,2.31-1.1,2.33-1.07,4.73-2.06,7.2-2.96,1.78-.65,3.56-1.22,5.34-1.76,1.78-.53,3.57-1,5.35-1.44,1.33-.33,2.66-.64,3.98-.93.55-.12,1.1-.25,1.65-.36.82-.18,1.64-.35,2.46-.53.82-.17,1.63-.35,2.44-.51,6.2-1.3,12.05-2.52,17.49-4.42,4.29-1.5,8.48-3.47,12.67-5.72.6-.32,1.2-.64,1.8-.97.87-.48,1.75-.97,2.62-1.47,1.32-.74,2.64-1.51,3.97-2.29,1.01-.59,2.04-1.19,3.06-1.79h0c7.18-4.21,14.52-8.52,22.49-11.88.76-.32,1.52-.63,2.29-.93h0c1.54-.6,3.11-1.17,4.7-1.68,1.99-.65,4.02-1.23,6.1-1.72,5.7-1.35,11.61-2.04,17.56-2.04,3.74,0,7.44.26,11.1.76.81.11,1.62.23,2.43.36,4.45.72,8.85,1.77,13.2,3.06,1.19.36,2.37.73,3.54,1.12h0c3.35,1.11,6.67,2.37,9.97,3.72.7.29,1.41.59,2.11.89,1.41.6,2.81,1.22,4.21,1.86.7.32,1.4.64,2.1.97,1.1.52,2.21,1.05,3.31,1.58,7.7,3.74,15.27,7.87,22.76,11.96,2.65,1.44,5.27,2.88,7.89,4.28.87.47,1.74.94,2.61,1.4.5.27,1,.54,1.5.79.74.39,1.48.78,2.23,1.17,1.48.77,2.95,1.53,4.42,2.27t0,0c.6.3,1.2.6,1.79.9,1.19.59,2.38,1.16,3.57,1.73h0c.97.46,1.93.91,2.89,1.35h0c.84.39,1.68.76,2.52,1.13.37.17.74.32,1.11.48,5.52,2.38,11,4.38,16.47,5.82,0-.01,0-.03-.01-.04-1.11-4.77-1.8-9.63-2.01-14.52-.06-1.07-.08-2.14-.08-3.23,0-2.98.21-6.01.63-9.07-.02-.32-.02-.65-.01-.98.11-7.37-.54-14.71-1.93-21.93-6.14.97-12.09,1.46-17.78,1.46-16.26,0-30.92-3.95-43.56-11.74-16.27-10.03-28.98-25.68-39.99-49.25-6.21-13.32-11.02-27.35-15.27-39.74-1.66-4.83-3.22-9.39-4.79-13.69-2.76-7.58-5.16-12.94-7.13-16.72C82.89,128.02,28.44,199.13,8.41,283.57h0c.42-.3.84-.62,1.27-.93,0,0,0,0,.01-.01Z"/>
      <path class="cls-1" d="M10.09,358.58c1.05-.53,2.09-1.05,3.13-1.55.01,0,.02-.01.03-.02,1.57-.76,3.11-1.5,4.65-2.21,1.05-.49,2.07-.96,3.1-1.43.77-.35,1.53-.69,2.28-1.02.82-.37,1.63-.73,2.43-1.07.82-.36,1.63-.7,2.43-1.05.08-.04.16-.07.23-.1.35-.15.71-.3,1.06-.45.7-.3,1.4-.59,2.08-.88.34-.14.68-.29,1.02-.43.01,0,.02,0,.02,0,.9-.37,1.78-.73,2.64-1.09,0,0,.02,0,.02,0,.27-.11.54-.22.81-.33.53-.21,1.06-.43,1.58-.64.78-.31,1.54-.62,2.29-.91.5-.2.98-.39,1.46-.58,2.59-1.02,5.17-2.02,7.75-3.02h0c1.72-.66,3.44-1.31,5.16-1.96h0c1.72-.64,3.43-1.28,5.15-1.9,1.72-.62,3.43-1.23,5.15-1.83,3.43-1.19,6.85-2.33,10.27-3.4h0c1.71-.53,3.42-1.05,5.13-1.54,2.57-.74,5.13-1.44,7.7-2.09.86-.21,1.72-.42,2.57-.63,1.71-.4,3.43-.78,5.14-1.14.43-.09.86-.17,1.29-.26,1.29-.26,2.57-.5,3.86-.72,1.29-.22,2.58-.43,3.86-.63,6.44-.96,12.9-1.49,19.4-1.49,1.14,0,2.28.02,3.41.05.03,0,.05,0,.07,0,.52.02,1.05.04,1.57.06,1.04.04,2.08.11,3.11.18,1.03.08,2.06.17,3.08.27,1.02.11,2.04.23,3.05.36.5.07,1.01.14,1.51.21.73.11,1.47.23,2.19.35.79.13,1.57.28,2.35.44,1.07.21,2.14.44,3.2.68,1.73.4,3.44.85,5.13,1.34,2.17.63,4.28,1.34,6.35,2.07,1.1.4,2.19.8,3.27,1.21,1.87.71,3.7,1.44,5.51,2.15,1.26.5,2.5.99,3.73,1.47.54.21,1.07.41,1.6.62,1.06.4,2.13.79,3.18,1.16.53.18,1.05.37,1.57.54,1.5.51,2.99.97,4.48,1.36.39.1.77.2,1.15.3h0c2.31.58,4.66,1.02,7.05,1.38.4.06.79.11,1.2.17.49.07.98.13,1.47.19.42.06.85.1,1.27.15.26.03.51.06.76.08.68.07,1.36.13,2.05.19.34.03.68.06,1.03.08.58.04,1.15.08,1.73.12.21.01.43.03.64.04.6.03,1.19.07,1.79.1.32.02.64.03.96.04l71.57-47.17,14.57-9.6,4.46-2.94c-.66-1.39-1.28-2.8-1.86-4.21,0,0,0-.01,0-.01-.63-.12-1.25-.25-1.88-.38-6.3-1.31-12.55-3.32-18.75-5.77-.89-.35-1.77-.71-2.66-1.08-.51-.22-1.02-.44-1.54-.65-.58-.25-1.17-.5-1.75-.76-1.16-.51-2.33-1.03-3.48-1.58-.16-.07-.31-.15-.47-.22-1.37-.64-2.73-1.29-4.1-1.96-.76-.37-1.52-.75-2.28-1.13-.96-.48-1.92-.97-2.89-1.47-.64-.32-1.28-.65-1.92-.99-.64-.33-1.28-.67-1.92-1-.96-.5-1.92-1.01-2.87-1.53-.16-.08-.31-.16-.46-.25-.49-.26-.97-.51-1.45-.78-.05-.02-.1-.05-.15-.08-.59-.32-1.17-.64-1.77-.96-.48-.26-.95-.51-1.43-.77-1.44-.78-2.87-1.56-4.31-2.34,0,0,0,0,0,0-1.79-.97-3.58-1.95-5.37-2.93-.76-.41-1.52-.82-2.27-1.23-.96-.51-1.91-1.02-2.87-1.54-.08-.04-.16-.08-.24-.12-.36-.19-.72-.38-1.08-.57-1.07-.56-2.15-1.13-3.23-1.69-.36-.18-.72-.37-1.07-.55-.04-.02-.08-.04-.12-.07-.64-.32-1.28-.65-1.91-.98-.04-.02-.08-.04-.12-.06-.6-.3-1.2-.6-1.8-.91-.48-.23-.96-.47-1.44-.71-.72-.35-1.44-.7-2.15-1.05-.08-.04-.16-.08-.24-.12-1.36-.65-2.72-1.29-4.08-1.9-.36-.16-.72-.32-1.08-.49-.36-.16-.72-.32-1.08-.48-1.44-.63-2.89-1.25-4.33-1.83-.36-.15-.73-.29-1.08-.44-.36-.14-.73-.28-1.08-.43-.36-.14-.73-.28-1.08-.41-.36-.14-.73-.27-1.09-.41-.36-.13-.72-.26-1.08-.4-.77-.27-1.53-.54-2.29-.8-.53-.18-1.05-.35-1.58-.52-.53-.17-1.05-.33-1.58-.49-.36-.11-.73-.22-1.09-.33-.33-.1-.66-.19-.99-.29-.33-.09-.66-.18-.99-.27-.19-.06-.37-.11-.56-.16-.97-.26-1.95-.51-2.92-.73-.5-.12-1-.23-1.49-.34-.03,0-.06-.01-.08-.02-.45-.1-.91-.2-1.36-.29-.05,0-.1-.02-.15-.03-.39-.08-.79-.15-1.19-.22-.06-.02-.13-.03-.2-.04-.14-.02-.28-.05-.43-.07-.42-.07-.85-.15-1.28-.21-.22-.04-.45-.07-.68-.11-.65-.1-1.31-.19-1.96-.27-.49-.06-.97-.12-1.45-.17-.02,0-.03,0-.04,0s-.03,0-.05,0c-.02,0-.04,0-.06,0-.2-.02-.41-.04-.61-.06-.36-.03-.72-.07-1.08-.1-.37-.03-.76-.06-1.13-.08-.67-.04-1.34-.08-2-.1-.45-.02-.89-.03-1.34-.03-.37,0-.74-.01-1.11-.01s-.77,0-1.16.01h-.01c-.37,0-.76.01-1.13.03-.07,0-.15,0-.22.01-.32.01-.64.02-.96.04-.39.02-.78.04-1.17.07-.39.03-.78.06-1.17.1-.39.03-.78.07-1.17.11-.39.04-.78.08-1.17.13-.39.05-.78.1-1.17.16-.47.07-.94.14-1.41.22-.47.08-.94.16-1.41.25h0c-.63.12-1.25.25-1.88.39-.31.07-.63.15-.95.22h0c-.39.1-.78.19-1.17.29-.82.21-1.64.44-2.46.69-.2.06-.41.12-.61.18-.2.06-.4.12-.6.19-.4.13-.81.26-1.21.4-.11.04-.22.08-.34.12-.18.06-.35.12-.53.18-.27.1-.55.2-.83.3-.3.11-.59.22-.88.33-.03.01-.06.02-.1.03-.3.12-.6.23-.91.36-.31.12-.63.25-.93.37-.62.26-1.24.52-1.86.79-.39.17-.77.34-1.15.51-.36.16-.73.33-1.09.5-.36.17-.73.34-1.09.51-.72.35-1.44.7-2.16,1.06-.6.31-1.21.62-1.81.93-.6.31-1.2.64-1.8.96-.6.32-1.19.65-1.78.98-.6.33-1.19.66-1.78,1-.13.07-.26.15-.39.22-.72.41-1.44.82-2.16,1.24-.04.02-.08.04-.11.06-.59.35-1.19.69-1.77,1.03-.1.06-.18.11-.27.16-.72.42-1.44.84-2.16,1.26-.07.04-.15.09-.22.13-.59.35-1.17.69-1.77,1.03-.29.18-.59.35-.89.52-.3.17-.59.35-.88.51-.59.35-1.18.69-1.77,1.03-1.19.68-2.38,1.36-3.57,2.02-.3.17-.6.34-.89.5-.36.2-.73.4-1.09.6-.47.26-.94.51-1.41.76-.36.2-.73.39-1.1.58-.3.16-.6.31-.91.46-.61.31-1.21.62-1.82.92-.61.3-1.22.6-1.84.88-.61.29-1.23.58-1.85.85-.31.15-.62.28-.93.41-.62.27-1.25.53-1.87.79-.31.13-.63.26-.95.37-.3.12-.6.24-.9.35-.34.13-.67.26-1.01.38-.32.11-.64.23-.96.34-.78.27-1.57.54-2.36.79h0c-.79.25-1.58.49-2.38.72h0c-.8.23-1.6.45-2.4.65t0,0c-.4.11-.81.21-1.21.31-.81.2-1.61.4-2.42.59-.4.09-.81.18-1.21.28-.4.1-.81.18-1.21.27,0,0-.01,0-.01,0-.81.18-1.63.35-2.44.53-.82.17-1.63.35-2.44.51-.41.09-.81.17-1.22.26-1.25.26-2.49.53-3.72.79-.11.02-.22.04-.32.07-1.42.31-2.84.62-4.26.96-1.59.37-3.18.78-4.75,1.22-1.05.29-2.09.59-3.13.93-1.04.32-2.07.67-3.09,1.04-.36.13-.72.26-1.07.41-.63.24-1.25.48-1.86.73-3.7,1.5-7.24,3.28-10.68,5.24-.57.32-1.14.65-1.71.99-.32.19-.64.38-.97.58-.02.02-.04.03-.06.03-.39.23-.77.47-1.15.7-1.91,1.17-3.79,2.4-5.65,3.67-.74.51-1.49,1.02-2.23,1.53-.53.37-1.06.74-1.58,1.11-1.49,1.06-2.96,2.13-4.44,3.2-.49.36-.98.72-1.47,1.08-2.02,1.49-4.03,2.99-6.05,4.48-.67.5-1.35,1-2.02,1.49-2.03,1.49-4.07,2.96-6.14,4.4-.68.47-1.35.94-2.04,1.4-3.31,18.16-5.02,36.85-5.02,55.95v8.25c2.29-1.29,4.59-2.53,6.88-3.72,1.07-.56,2.15-1.11,3.21-1.64Z"/>
      <path class="cls-1" d="M496.14,500.78c-32.66-9.61-64.29,3.83-99.91-4.88-16.21-3.96-37.36-13.25-48.54-27.55-2.69-3.44-4.8-7.17-6.12-11.19h0v-85.88h-53.15v85.88h0c-1.11,3.93-3.36,7.67-6.32,11.19-8.78,10.41-23.88,18.71-34.41,23.27-37.35,16.17-58.23,7.42-95.22,5.07-30.14-1.92-47.56,17.7-76.66,17.43,19.35,12.37,43.37-5.33,62.96-6.88,15.75-1.25,32.17,3.73,47.88,4.63l-17.19,6.32c-12.4,6.45-21.58,18.85-32.41,26.81-7.5,5.51-15.37,7.37-23.27,11.66,21.77,3.85,39.37-12.49,56.17-23.54-1.61,17.68-1.1,30.32-16.68,41.77,27.54,1.11,18.49-35.56,36.56-50.01,12.37-9.89,41.9-12.53,57.59-16.06l-12.35,36.99c-10.75,9.78-23.99,14.31-33.16,26.07-6.84,8.76-7.55,15.42-11.41,25.03-.37.93-5.89,8.46-3.06,7.57,8.9-3.92,10.14-12.87,14.74-20.19,8.71-13.86,21.77-20.17,36.13-26.87,1.46,7.86,1.57,17.05-.1,24.94-1.77,8.37-8.1,16.39-7.16,25.52.12,1.18.79,4.65,2.7,4.19,2.43-12.32,10.37-22.44,13.25-34.6,3.11-13.15,2.1-26.46,5.45-40.11,7.66-31.16,29.48-41.41,51.17-61.96.23,14.69,3.47,31.35,1.16,45.95-2.56,16.25-19.27,27.91-26.18,42.16-9.08,18.73-8.53,36.56-1.21,55.84.73,1.92.89,4.46,3.45,4.89-.58-17.07-5.07-33.96,4.29-49.64l12.41-17.18c-.39,22.55,21.76,36.96,24.15,58.62.59,5.42-.27,9.22-.62,14.26-.15,2.04-2.57,5.13,1.53,4.58,4.89-8.53,4.74-21.11,3.42-30.75-2.51-18.42-19.76-35.03-18.89-53.89.27-5.81,10.35-14.9,10.19-21.68,5.08,5.89,8.91,12.44,15.13,17.51,8.27,6.73,18.43,9.38,24.71,19.33,9.69,15.37,1.43,39.64,19.47,51.9,2.46,1.67,7.62,5.09,10.52,3.15-18.27-13.46-9.88-38.21-19.73-55.42,5.93-4.33,31.95,15.67,36.51,20.42,6.59,6.85,10.28,18.36,21.21,19.8-8.6-13.05-15.97-27.02-28.15-37.15-20.5-17.04-51.08-18.98-64.79-43.04-8.26-14.49-8.66-33.33-8.81-49.65,14.73,17.99,41.47,22.67,57.71,37.19,13.95,12.47,20.32,33.33,36.54,45.47,16.8,12.59,23.45,9.05,37.03,29.83,2.12,3.24,1.47,7.05,5.39,5.95-2.47-29.29-28.52-34.12-44.82-53.12l-20.47-30.4c23.19,6.01,46.24,7.17,67.01,20.31,15.58,9.86,30.04,29.98,50.9,23.95,2.05-.59,4.63-.58,5.09-3.24-21.29.5-35.07-17.37-50.24-29.51l-21.13-13.01c12.42,0,24.63-1.41,37.02.16,22.14,2.82,43.56,17.09,66.23,7.39l-21.57-3.46c-10.96-2.54-21.32-9.02-31.91-12.13Z"/>
      <path class="cls-1" d="M189.72,449.92v-61.11h-58.07l56.68-37.37c-.06,0-.12-.02-.18-.03-.29-.04-.58-.09-.87-.14-.78-.13-1.57-.27-2.34-.41-.78-.15-1.55-.31-2.33-.48-.02,0-.03,0-.04-.01-1.11-.25-2.21-.51-3.31-.81-1.6-.43-3.18-.91-4.75-1.43-.63-.21-1.25-.43-1.88-.64-.31-.11-.62-.22-.93-.33-1.01-.36-2.02-.74-3.03-1.12-2.01-.77-4.01-1.56-6.01-2.35-1-.4-2.01-.79-3.01-1.18-3.4-1.31-6.82-2.57-10.31-3.59-2.73-.79-5.46-1.44-8.22-1.95-1.96-.37-3.93-.67-5.89-.9-.12-.01-.25-.03-.37-.04-11.88-1.35-23.91-.38-35.89,2-.57.11-1.14.23-1.71.35-2.85.59-5.68,1.26-8.52,2-1.13.3-2.26.6-3.39.91-1.64.46-3.29.93-4.93,1.43-1.23.37-2.46.75-3.69,1.14-1.22.39-2.46.78-3.67,1.19-.82.27-1.63.55-2.44.82l-2.43.84c-.81.29-1.62.57-2.43.86l-2.42.87h0c-.81.29-1.61.59-2.41.88-5.22,1.93-10.4,3.94-15.49,5.94-9.7,3.81-19.45,7.93-28.87,12.6-2.82,1.4-5.63,2.85-8.39,4.36-.69.37-1.38.76-2.06,1.14-2.06,1.15-4.09,2.33-6.1,3.55v93.2h168.62l21.1-20.17Z"/>
      <path class="cls-1" d="M999.5,320.36h-.86c-5.83,0-8.06-2.23-8.06-10.29v-42.37h.34c8.92,0,11.66,6.35,14.06,26.41,2.92,26.07,9.95,30.87,19.73,30.87,10.29,0,16.64-8.92,16.64-25.56h-3.09c-.34,8.23-1.54,12.01-4.8,12.01-3.77,0-5.15-2.57-9.78-20.07-3.26-12.52-10.63-21.61-23.16-24.87v-.17c13.89-1.54,31.73-10.63,31.73-30.53,0-21.96-13.89-29.67-33.96-29.67h-37.91v3.09h.86c6,0,8.23,2.23,8.23,10.29v90.56c0,8.06-2.23,10.29-8.23,10.29h-.86v3.09h39.11v-3.09ZM990.58,219.33c0-8.06,2.92-10.12,6.35-10.12h1.2c8.23,0,11.49,7.72,11.49,27.27,0,18.52-2.57,27.79-16.64,27.79h-2.4v-44.94Z"/>
      <path class="cls-1" d="M1113.56,275.76h-3.09c-2.06,21.1-9.95,44.42-25.04,44.42h-4.29c-5.83,0-8.06-2.74-8.06-10.29v-45.63h1.89c11.32,0,14.75,11.83,14.92,26.59h2.92v-55.23h-2.92c-.17,14.92-3.77,25.21-14.92,25.21h-1.89v-41.17c0-7.2,2.23-10.29,8.06-10.29h3.43c14.24,0,21.78,20.24,23.5,40.82h2.92l-1.2-44.08h-67.24v3.09h.86c6,0,8.23,3.6,8.23,10.46v90.22c0,7.2-2.23,10.46-8.23,10.46h-.86v3.09h68.78l2.23-47.68Z"/>
      <path class="cls-1" d="M155.26,67.25c1.53.88,3.01,2.17,4.48,3.83,2.13,2.41,4.18,5.59,6.19,9.39,2.7,5.11,5.3,11.34,7.84,18.3,5.71,15.68,11.4,34.77,19.68,52.52,8.29,17.74,19.21,34.28,35.73,44.47,15.83,9.76,36.65,13.3,63.81,6.74,3.37,11.51,4.97,23.34,4.79,35.22-.01.35.02.69.1,1.02-.6,3.76-.86,7.61-.64,11.55h0c.26,5.92,1.31,11.71,3.05,17.26,0,0,0,.01,0,.02.86,2.76,1.88,5.45,3.06,8.08.5,1.14,1.04,2.25,1.61,3.36,0,0,0,0,0,.01,1.13,2.23,2.38,4.4,3.72,6.52l-9.37,6.18-3.74,2.46-14.57,9.6-58.12,38.32h-.01l-16.41,10.83h-.03l-37.49,24.72h31.97v77.07l-16.08,15.37h16.08v.02h18.05v-94.36h0s14.52-10.56,14.52-10.56l14.52-10.56h0s10.98-7.98,10.98-7.98l2.99-2.18h0l.02-.02h0l50.1-36.42h0s2.02,1.41,2.02,1.41h.01s9.23,6.49,9.23,6.49l49.16,34.51,4.5,3.16h.01l14.69,10.31h0s0,.01,0,.01h.01l.79.56,6.45,4.53,1.16.82,5.27,3.7,3.14,2.21v94.36h20.49v-.02h16.08l-16.08-15.37v-77.07h31.96l-29.28-19.3h0l-13.25-8.74-75.7-49.89-27.82-18.33s0,0,0,0c-.57-.9-1.12-1.81-1.64-2.73-.01,0-.01-.01-.01-.02-1.34-2.33-2.54-4.74-3.59-7.2-.51-1.2-.98-2.41-1.43-3.64h0c-2.06-5.75-3.3-11.74-3.57-17.84v-.03c-.83-15.2,6.65-29.98,14.64-43.84,3.59-6.21,7.43-12.82,10.87-19.78,6.43-11.44,14.7-21.77,24.62-30.6,28.42,7.62,50.57,13.38,74.34,8.47,15.73-3.25,31.83-11.13,50.75-25.8,9.8-7.59,20.35-17.01,31.98-28.54.61-.59,1.22-1.2,1.83-1.82,1.47-1.48,1.46-3.87-.01-5.32-1.21-1.21-3.06-1.45-4.53-.6-1.2.69-3.15,1.19-5.74,1.4-1.38.11-2.94.15-4.65.07-3.16-.13-6.83-.56-10.87-1.16-2.25-.33-4.61-.73-7.06-1.16-13.76-2.4-30.45-5.97-47.44-6.97-4.24-.23-8.52-.34-12.77-.2-12.77.4-25.38,2.8-36.63,8.95-14.79,8.09-26.89,22.71-33.5,46.46-3.86,3.39-7.51,6.97-10.92,10.78,1.08-5.41,1.6-10.94,1.27-16.6-.31-6.51-1.4-12.9-3.19-19.1-1.53-5.29-1.99-10.84-1.31-16.3.87-6.97,2.66-13.84,5.37-20.46,13.62-4.52,25.91-17.41,33.11-38.62,1.15-3.39,2.18-7.01,3.05-10.83,2.3-10.06,3.59-21.59,3.59-34.58,0-2.07-1.68-3.78-3.76-3.78h-.12c-1.67.04-3.1,1.19-3.52,2.82-3.98,15.29-11.83,24.22-19.79,32.26-2.24,2.27-4.49,4.45-6.67,6.69-1.16,1.2-2.3,2.4-3.41,3.65-3.6,4.07-6.77,8.5-8.74,13.9-2.49,6.78-2.92,14.92-.5,25.1-2.74,6.54-4.64,13.33-5.72,20.21,0,0-2.52,8.13.92,21.21,0,.02.01.04.02.07.23.76.45,1.52.65,2.29,0,.01.01.03.01.04,1.37,5.16,2.21,10.44,2.46,15.77v.04c1.16,20.21-10.19,40.27-20.56,58.25-3.02,5.23-6.11,10.77-8.72,16.55-.95-6.9-2.47-13.74-4.55-20.46,19.21-34.71,9.06-70.01-18.38-95.54-19.45-18.11-47.41-31.77-79.96-38.34-6.99-1.41-14.18-2.49-21.55-3.22h0c-7.35-.74-14.88-1.11-22.54-1.11-2.09.01-3.78,1.71-3.78,3.78,0,1.34.73,2.58,1.88,3.26ZM456.68,126.37c-21.49-3.24-41.95,3.26-61.78,10.73-6.66,2.57-13.23,5.48-20.16,8.29,17.49-20.42,57.88-35.43,81.94-19.03ZM279.66,180.43c-16.38-28.42-35.35-61.66-66.17-75.98,34.32,1.84,62.24,44.52,66.17,75.98Z"/>
      <path class="cls-1" d="M706.99,399.17c7.49,0,12.27-4.84,12.27-11.09,0-6.78-4.78-11.15-12.27-11.15h-9.38v43.05h2.36v-20.88l18.93,20.88h3.12l-18.99-20.82h3.95ZM699.97,379.18h6.78c6.49,0,10.14,3.42,10.14,8.91s-3.66,8.91-10.14,8.91h-6.78v-17.81Z"/>
      <path class="cls-1" d="M739.6,388.32c-8.91,0-15.51,6.9-15.51,16.16s6.61,16.1,15.51,16.1,15.45-6.9,15.45-16.1-6.6-16.16-15.45-16.16ZM739.6,418.34c-7.61,0-13.21-5.9-13.21-13.86s5.6-13.92,13.21-13.92,13.15,5.9,13.15,13.92-5.6,13.86-13.15,13.86Z"/>
      <path class="cls-1" d="M1344.61,325.67c19.9,0,34.82-26.93,34.82-61.23s-15.27-60.55-34.48-60.55-34.65,26.07-34.65,61.23,15.09,60.55,34.3,60.55ZM1344.61,205.43c19.55,0,25.21,28.64,25.21,59.69s-5.32,59-24.87,59-25.04-28.64-25.04-59.69,5.32-59,24.7-59Z"/>
      <path class="cls-1" d="M884.75,312.47c-.17-3.43,1.03-9.43,2.74-15.61l3.77-13.04h25.73l5.49,19.04c1.2,4.63,1.71,7.72,1.71,10.81-.17,3.43-2.06,6.69-6.69,6.69h-3.95v3.09h44.25v-3.09c-6.86-.51-9.43-4.29-11.66-12.18l-31.22-104.8h-4.46l-29.5,100c-3.26,10.98-6.17,16.29-12.52,16.98v3.09h25.9v-3.09h-2.23c-4.97,0-7.2-3.09-7.38-7.89ZM903.96,239.4l12.01,40.65h-23.67l11.66-40.65Z"/>
      <path class="cls-1" d="M632.4,343.29s-.04-.02-.06-.03c-.02,0-.04-.01-.06-.02-.03-.02-.08-.03-.12-.05h0c-2.22-.93-4.46-1.81-6.72-2.64-.46-.17-.92-.34-1.39-.51-.46-.17-.92-.34-1.39-.5-.24-.08-.46-.16-.7-.24-.7-.24-1.4-.49-2.1-.72-.93-.31-1.87-.62-2.81-.92-.94-.3-1.88-.59-2.82-.88-.06-.02-.12-.03-.19-.06-.77-.23-1.53-.46-2.3-.68-1.43-.41-2.86-.81-4.3-1.19-.09-.02-.18-.04-.26-.07h0c-.54-.15-1.07-.29-1.61-.41-.23-.06-.46-.12-.69-.17-.77-.2-1.53-.38-2.3-.56-.05-.01-.1-.02-.15-.03-.78-.18-1.56-.36-2.34-.54-1.52-.34-3.05-.67-4.58-.97-.04,0-.08-.02-.12-.02-1.58-.31-3.15-.6-4.73-.88-2.41-.41-4.83-.79-7.25-1.11-.75-.1-1.5-.2-2.26-.29-2.62-.32-5.25-.59-7.87-.81-1.35-.11-2.71-.21-4.07-.3-6.6-.4-13.23-.48-19.85-.21-3.46.14-6.92.37-10.37.69h0c-.86.08-1.72.17-2.58.26-.5.05-.99.11-1.48.17-.03,0-.07,0-.1.01-.24.02-.49.06-.73.08-.29.03-.58.07-.86.11-.48.06-.96.12-1.44.18-.12.01-.25.03-.36.04-.06.01-.12.02-.18.03-.04,0-.07,0-.11.01-.16.02-.32.04-.48.07-.2.02-.4.06-.6.08-.46.06-.92.13-1.38.2-.54.08-1.07.16-1.61.25-.74.12-1.48.24-2.21.36-.27.04-.54.1-.82.14-.27.05-.54.09-.82.15-.32.06-.64.11-.96.17h0c-.08.02-.16.03-.23.04-.35.06-.7.13-1.05.2-.09.02-.18.04-.27.05-.02,0-.03,0-.04,0h0c-.11.03-.22.05-.34.07-.14.03-.27.06-.41.08-.1.02-.2.04-.3.06-.18.03-.36.07-.54.11-.06.01-.12.02-.17.04-.48.09-.95.19-1.42.29h0c-.53.11-1.06.22-1.58.34-.43.1-.84.19-1.26.29-.07.02-.14.03-.21.04h0c-.06.02-.12.03-.17.04-.43.1-.86.2-1.29.3h0c-.49.12-.98.23-1.47.35h0c-.13.03-.27.07-.4.1-.17.04-.34.08-.51.13-.1.02-.2.05-.3.08-.07.02-.15.03-.21.05-.01,0-.02.01-.03.01-.02,0-.03.01-.05.01-.47.12-.94.23-1.41.36-.49.12-.97.25-1.46.38h0c-.49.13-.97.26-1.46.39-.49.13-.97.26-1.45.4-.4.11-.8.22-1.2.34-.18.05-.36.1-.53.15-.46.13-.92.26-1.37.39-.04.01-.1.03-.14.04-.86.25-1.71.5-2.56.75h0c-.12.04-.24.07-.36.11-.84.25-1.68.51-2.53.77-.96.3-1.92.6-2.88.91-.86.27-1.71.55-2.56.82-1.71.55-3.41,1.11-5.11,1.68-.85.29-1.69.57-2.54.86-1.7.58-3.39,1.15-5.09,1.73-2.54.88-5.08,1.76-7.63,2.63-4.03,1.39-8.06,2.76-12.1,4.09-.42.13-.84.27-1.26.41-1.29.42-2.58.83-3.88,1.24-2.05.65-4.1,1.28-6.16,1.88-.72.21-1.44.43-2.16.63.72-.21,1.44-.42,2.16-.63l52.04,34.3h-58.07v61.11l21.1,20.17h171.06v-125.77c0-.35,0-.68-.02-1.02h0Z"/>
      <path class="cls-1" d="M1187.49,273.53h-3.26c-2.4,28.3-9.26,46.65-24.01,46.65h-2.23c-4.8,0-6.86-3.6-6.86-10.29v-90.22c0-6.69,2.23-10.46,8.06-10.46h2.74v-3.09h-41.34v3.09h.86c6,0,8.23,4.12,8.23,10.46v90.22c0,6.69-2.23,10.46-8.23,10.46h-.86v3.09h64.84l2.06-49.91Z"/>
      <polygon class="cls-1" points="1373.07 416.57 1363.64 388.91 1361.57 388.91 1352.02 416.57 1343.17 388.91 1340.76 388.91 1350.84 419.99 1352.96 419.99 1362.58 392.45 1372.01 419.99 1374.08 419.99 1384.22 388.91 1381.86 388.91 1373.07 416.57"/>
      <rect class="cls-1" x="1480.69" y="388.91" width="2.24" height="31.08"/>
      <rect class="cls-1" x="1480.69" y="374.64" width="2.24" height="8.02"/>
      <rect class="cls-1" x="898" y="388.91" width="2.24" height="31.08"/>
      <path class="cls-1" d="M1517.14,388.32c-4.36,0-7.55,1.95-9.2,5.25.06-1.42.06-2.77.06-4.36v-14.57h-2.24v45.35h2.24v-18.87c0-6.9,3.13-10.62,8.96-10.62s8.96,3.77,8.96,10.62v18.87h2.24v-18.93c0-8.08-4.13-12.74-11.03-12.74Z"/>
      <path class="cls-1" d="M1322.24,388.32c-8.91,0-15.51,6.9-15.51,16.16s6.61,16.1,15.51,16.1,15.45-6.9,15.45-16.1-6.6-16.16-15.45-16.16ZM1322.24,418.34c-7.61,0-13.21-5.9-13.21-13.86s5.6-13.92,13.21-13.92,13.15,5.9,13.15,13.92-5.6,13.86-13.15,13.86Z"/>
      <polygon class="cls-1" points="1463.89 416.57 1454.45 388.91 1452.39 388.91 1442.84 416.57 1433.99 388.91 1431.57 388.91 1441.66 419.99 1443.78 419.99 1453.39 392.45 1462.83 419.99 1464.89 419.99 1475.04 388.91 1472.68 388.91 1463.89 416.57"/>
      <path class="cls-1" d="M1400.38,388.32c-7.14,0-11.21,4.66-11.21,12.74v18.93h2.24v-18.87c0-6.9,3.13-10.62,8.96-10.62s8.96,3.72,8.96,10.62v18.87h2.24v-18.93c0-8.08-4.13-12.74-11.21-12.74Z"/>
      <path class="cls-1" d="M1562.96,325.16h1.37v-39.62c0-8.4,2.57-10.46,8.75-10.46h.86v-2.23h-27.96v2.23h2.92c5.15,0,7.55,1.2,7.55,10.46v14.41c0,11.49-6,23.5-18.87,23.5-17.5,0-25.21-23.33-25.21-59.35s7.72-58.15,24.18-58.15c11.83,0,23.16,13.38,27.1,43.74h2.23l-1.03-45.63h-1.89c-1.37,8.4-2.23,11.66-3.95,11.66-1.2,0-2.4-1.2-3.95-2.4-5.15-4.63-10.46-8.92-18.7-8.92-16.29,0-33.62,20.93-33.62,60.38,0,36.71,16.29,60.21,34.82,60.21,6.17,0,10.98-2.74,15.44-6.35,1.72-1.54,3.09-2.74,4.8-2.74,1.89,0,3.43,2.4,5.15,9.26Z"/>
      <path class="cls-1" d="M1415.28,267.53c11.66,0,16.12.51,19.21,31.05,2.06,20.58,7.03,26.42,14.24,26.42,6.17,0,11.49-8.23,9.95-28.13h-2.4c1.2,14.75-1.71,19.9-5.15,19.9-4.29,0-6.35-2.4-9.78-25.56-2.4-16.12-8.06-21.44-14.41-24.53v-.34c15.09-4.63,22.47-15.27,22.47-31.05,0-19.21-12.86-29.5-31.73-29.16h-31.05v2.23h3.43c6,0,7.89,2.23,7.89,10.29v91.94c0,8.06-1.54,10.63-7.89,10.63h-3.43v2.23h31.73v-2.23h-3.95c-6,0-8.06-2.57-8.06-10.63v-43.05h8.92ZM1406.36,218.3c0-8.23,2.4-9.95,8.4-9.95h1.89c21.78,0,23.33,17.32,23.33,27.27,0,12.18-3.43,29.67-20.07,29.67h-13.55v-47Z"/>
      <path class="cls-1" d="M1681.02,388.32c-8.91,0-15.51,6.9-15.51,16.16s6.61,16.1,15.51,16.1,15.45-6.9,15.45-16.1-6.6-16.16-15.45-16.16ZM1681.02,418.34c-7.61,0-13.21-5.9-13.21-13.86s5.6-13.92,13.21-13.92,13.15,5.9,13.15,13.92-5.6,13.86-13.15,13.86Z"/>
      <path class="cls-1" d="M1711.45,403.83l-2.42-1.47c-3.72-2.3-5.37-4.13-5.37-6.6,0-3.18,2.59-5.01,7.37-5.01.94,0,2.3.06,4.13.24v-2.06c-1.65-.18-3.42-.29-4.6-.29-5.6,0-9.14,2.83-9.14,7.14,0,3.3,2.06,5.84,6.55,8.55l2.24,1.36c3.66,2.18,5.13,4.01,5.13,6.72,0,3.83-2.65,5.72-7.96,5.72-1.3,0-3.54-.12-5.84-.29v2.18c2.3.18,4.54.29,5.84.29,6.43,0,10.2-3.01,10.2-7.96,0-3.48-1.89-5.9-6.13-8.49Z"/>
      <path class="cls-1" d="M1294.05,397.46v22.53h2.24v-22.41c0-4.9,1.83-6.49,6.31-6.49h2.89v-2.18h-3.07c-5.96,0-8.37,2.77-8.37,8.55Z"/>
      <path class="cls-1" d="M1645.17,388.32c-5.72,0-10.67,3.01-12.74,7.37v-6.78h-2.12v42.64h2.24v-11.56c0-2.24-.06-4.54-.12-6.78,2,4.36,6.96,7.37,12.74,7.37,8.61,0,15.39-6.72,15.39-16.1s-6.78-16.16-15.39-16.16ZM1644.99,418.34c-6.84,0-12.74-4.78-12.74-13.86s5.9-13.92,12.74-13.92c7.67,0,13.27,5.9,13.27,13.92s-5.6,13.86-13.27,13.86Z"/>
      <path class="cls-1" d="M1724.13,403.71h27.48c-.71-10.2-7.14-15.22-14.57-15.22-8.91,0-15.22,7.25-15.22,16.04s6.25,15.92,15.51,15.92c7.55,0,12.15-4.72,14.15-8.67l-1.95-1c-2.3,4.54-6.66,7.43-12.21,7.43-7.96,0-13.21-6.07-13.21-13.56v-.94ZM1736.98,390.74c5.48,0,10.73,3.18,12.09,10.79h-24.65c1.12-6.07,5.9-10.79,12.56-10.79Z"/>
      <path class="cls-1" d="M1613.73,397.46v22.53h2.24v-22.41c0-4.9,1.83-6.49,6.31-6.49h2.89v-2.18h-3.07c-5.96,0-8.37,2.77-8.37,8.55Z"/>
      <path class="cls-1" d="M1602.88,407.78c0,6.9-3.13,10.62-8.96,10.62s-8.96-3.72-8.96-10.62v-18.87h-2.24v18.93c0,8.08,4.13,12.74,11.21,12.74s11.21-4.66,11.21-12.74v-18.93h-2.24v18.87Z"/>
      <path class="cls-1" d="M1563.84,376.94h-9.73v43.05h2.36v-19.7h7.37c8.08,0,13.09-4.48,13.09-11.68s-5.01-11.68-13.09-11.68ZM1563.61,398.05h-7.14v-18.87h7.14c6.96,0,10.91,3.36,10.91,9.44s-3.95,9.44-10.91,9.44Z"/>
      <path class="cls-1" d="M1579.08,208.35h3.43c5.83,0,7.89,1.54,7.89,10.29v92.28c0,8.75-2.06,10.29-7.89,10.29h-3.43v2.23h31.05v-2.23h-2.92c-6,0-8.4-1.54-8.4-10.29v-92.28c0-8.75,2.4-10.29,8.4-10.29h2.92v-2.23h-31.05v2.23Z"/>
      <polygon class="cls-1" points="1495.38 378.71 1493.14 379.89 1493.14 388.91 1489.24 388.91 1489.24 391.09 1493.14 391.09 1493.14 419.99 1495.38 419.99 1495.38 391.09 1499.51 391.09 1499.51 388.91 1495.38 388.91 1495.38 378.71"/>
      <path class="cls-1" d="M1050.32,423.47c0,4.42-1.83,5.9-6.19,5.9h-.47v2.18h.65c5.84,0,8.26-2.65,8.26-7.96v-34.68h-2.24v34.56Z"/>
      <path class="cls-1" d="M1022.67,395.69c-2.06-4.36-7.02-7.37-12.74-7.37-8.61,0-15.39,6.72-15.39,16.16s6.78,16.1,15.39,16.1c5.72,0,10.67-3.01,12.74-7.37v6.78h2.12v-31.08h-2.12v6.78ZM1010.05,418.34c-7.61,0-13.21-5.9-13.21-13.86s5.6-13.92,13.21-13.92c6.9,0,12.8,4.78,12.8,13.92s-5.9,13.86-12.8,13.86Z"/>
      <path class="cls-1" d="M1265.92,399.47h19.17c-.53,11.97-8.2,18.81-18.11,18.81-10.97,0-19.34-8.37-19.34-19.7s8.55-19.93,19.52-19.93c5.78,0,11.03,2.3,14.39,6.02l1.65-1.89c-3.83-4.01-9.79-6.43-16.04-6.43-11.97,0-21.94,9.02-21.94,22.23s9.79,22,21.76,22c11.26,0,20.46-8.02,20.46-22.35v-1h-21.53v2.24Z"/>
      <rect class="cls-1" x="1050.32" y="374.64" width="2.24" height="8.02"/>
      <path class="cls-1" d="M967.23,376.94h-9.79v43.05h9.79c12.15,0,21.7-8.37,21.7-21.53s-9.55-21.53-21.7-21.53ZM967.23,417.75h-7.43v-38.57h7.43c11.15,0,19.29,7.84,19.29,19.29s-8.14,19.28-19.29,19.28Z"/>
      <path class="cls-1" d="M1061.94,403.71h27.48c-.71-10.2-7.14-15.22-14.57-15.22-8.91,0-15.22,7.25-15.22,16.04s6.25,15.92,15.51,15.92c7.55,0,12.15-4.72,14.15-8.67l-1.95-1c-2.3,4.54-6.66,7.43-12.21,7.43-7.96,0-13.21-6.07-13.21-13.56v-.94ZM1074.8,390.74c5.48,0,10.73,3.18,12.09,10.79h-24.65c1.12-6.07,5.9-10.79,12.56-10.79Z"/>
      <rect class="cls-1" x="898" y="374.64" width="2.24" height="8.02"/>
      <path class="cls-1" d="M920.29,388.32c-7.14,0-11.21,4.66-11.21,12.74v18.93h2.24v-18.87c0-6.9,3.13-10.62,8.96-10.62s8.96,3.72,8.96,10.62v18.87h2.24v-18.93c0-8.08-4.13-12.74-11.21-12.74Z"/>
      <path class="cls-1" d="M1045.19,388.91h-3.07c-5.96,0-8.37,2.77-8.37,8.55v22.53h2.24v-22.41c0-4.9,1.83-6.49,6.31-6.49h2.89v-2.18Z"/>
      <path class="cls-1" d="M1164.61,388.32c-7.14,0-11.21,4.66-11.21,12.74v18.93h2.24v-18.87c0-6.9,3.13-10.62,8.96-10.62s8.96,3.72,8.96,10.62v18.87h2.24v-18.93c0-8.08-4.13-12.74-11.21-12.74Z"/>
      <path class="cls-1" d="M1210.73,395.69c-2.06-4.36-7.02-7.37-12.74-7.37-8.61,0-15.39,6.66-15.39,15.92s6.78,15.81,15.45,15.81c5.66,0,10.62-2.89,12.68-7.25l-.12,4.72c-.18,7.78-4.19,11.85-13.98,11.85h-5.25v2.18h5.13c11.91,0,16.34-5.9,16.34-14.04v-28.6h-2.12v6.78ZM1198.28,417.81c-7.84,0-13.39-5.72-13.39-13.56s5.6-13.68,13.21-13.68c6.9,0,12.8,4.78,12.8,13.92s-5.96,13.33-12.62,13.33Z"/>
      <path class="cls-1" d="M1096.5,403.71h27.48c-.71-10.2-7.14-15.22-14.57-15.22-8.91,0-15.22,7.25-15.22,16.04s6.25,15.92,15.51,15.92c7.55,0,12.15-4.72,14.15-8.67l-1.95-1c-2.3,4.54-6.66,7.43-12.21,7.43-7.96,0-13.21-6.07-13.21-13.56v-.94ZM1109.35,390.74c5.48,0,10.73,3.18,12.09,10.79h-24.65c1.12-6.07,5.9-10.79,12.56-10.79Z"/>
      <path class="cls-1" d="M1261.76,284.68v-54.2c0-16.12,3.26-21.27,11.32-21.27h.69v-3.09h-28.47v3.09h.51c8.75,0,11.49,5.83,11.49,21.27v54.2c0,22.47-7.89,32.25-19.73,32.25-13.38,0-17.67-10.46-17.67-31.9v-65.35c0-7.55,2.4-10.46,8.06-10.46h2.06v-3.09h-40.82v3.09h1.03c5.32,0,8.23,2.4,8.23,10.46v65.01c0,26.59,11.49,40.82,33.79,40.82,18.52,0,29.5-14.24,29.5-40.82Z"/>
      <rect class="cls-1" x="1221.51" y="414.45" width="2.83" height="5.54"/>
      <rect class="cls-1" x="1130.88" y="374.64" width="2.24" height="45.35"/>
      <rect class="cls-1" x="1142.32" y="374.64" width="2.24" height="8.02"/>
      <rect class="cls-1" x="1142.32" y="388.91" width="2.24" height="31.08"/>
    </g>
  </g>
</svg>