<?xml version="1.0" encoding="UTF-8"?>
<svg id="Layer_2" data-name="Layer 2" xmlns="http://www.w3.org/2000/svg" viewBox="0 0 1760.04 634.93">
  <defs>
    <style>
      .cls-1 {
        fill: #ded0b5;
      }

      .cls-2 {
        fill: #b7935f;
      }

      .cls-3 {
        fill: #613f1d;
      }

      .cls-4 {
        fill: #d4b382;
      }

      .cls-5 {
        fill: #264327;
      }

      .cls-6 {
        fill: #010101;
      }
    </style>
  </defs>
  <g id="Design">
    <g id="GO_Horizontal">
      <g>
        <path class="cls-1" d="M632.16,343.19c-.67-16.97-2.71-33.59-5.99-49.76h0c-28.85-142.01-154.38-248.85-304.9-248.85h-10.15C158.39,44.58,31.36,154.62,5.02,299.75,1.71,317.91,0,336.6,0,355.7v114.39h218.96v-94.36l29.05-21.12,64.11-46.6,79.63,55.9,16.84,11.82v94.36h223.81v-114.39c0-4.19-.08-8.37-.24-12.51Z"/>
        <path class="cls-1" d="M221.11,353.22c8.96.22,17.93.71,26.91,1.39l-29.06,21.12v94.36H0v-93.19c14.27-8.67,29.91-15.57,45.42-21.66,33.26-13.07,69.6-26.34,103.91-16.33,10.17,2.97,19.7,7.91,29.93,10.65,8.84,2.38,17.99,3.07,27.17,3.35,4.89.16,9.8.19,14.68.31Z"/>
        <path class="cls-1" d="M632.41,344.32v125.77h-223.81v-94.36l-16.85-11.83c13.42-.81,26.77-2.54,40.01-5.57.66-.15,1.32-.3,1.98-.46,27.87-6.64,54.18-18.93,82.16-25.1,38.68-8.53,79.95-4.71,116.5,10.51.01.34.01.69.01,1.04Z"/>
        <path class="cls-1" d="M632.4,355.7v114.39h-223.8v-94.36h-.01l-96.47-67.72-93.16,67.72v94.36H0v-114.39c0-19.1,1.71-37.79,5.02-55.95,16.06-10.92,30.61-24.35,49.12-31.06,12.5-4.53,26.05-5.53,38.6-9.92,20.51-7.18,37.45-23.1,58.59-28.11,48.18-11.41,91.71,36.8,138.8,46.62,2.9.62,5.82,1.08,8.75,1.36,6.21.62,12.48.48,18.84-.63,15.24-2.67,28.88-10.8,42.14-18.78,23.5-14.15,46.99-28.31,70.49-42.46,4.01-2.42,8.13-4.87,12.71-5.82,22.06-4.52,35.56,25.45,57.12,31.96,7.85,2.37,16.29,1.41,24.44,2.33,30.87,3.47,52.65,32.62,82.2,42.19,6.43,2.1,13.23,3.25,19.35,5.99h0c3.28,16.18,5.32,32.8,5.99,49.77.16,4.14.24,8.32.24,12.51Z"/>
        <path class="cls-4" d="M632.16,343.19c-.67-16.97-2.71-33.59-5.99-49.76h0c-6.12-2.75-12.93-3.91-19.36-6-29.55-9.56-51.31-38.72-82.19-42.2-8.16-.91-16.59.05-24.44-2.31-21.56-6.51-35.07-36.49-57.11-31.97-4.59.95-8.7,3.41-12.71,5.83-23.5,14.14-47,28.31-70.5,42.45-13.26,7.98-26.9,16.11-42.14,18.79-58.13,10.16-108.96-60.95-166.38-47.36-21.15,5.01-38.08,20.94-58.6,28.12-12.54,4.39-26.1,5.38-38.6,9.92-18.51,6.71-33.06,20.13-49.12,31.05C1.71,317.91,0,336.6,0,355.7v114.39h218.96v-94.36l29.05-21.12,64.11-46.6,79.63,55.9,16.84,11.82v94.36h223.81v-114.39c0-4.19-.08-8.37-.24-12.51Z"/>
        <path class="cls-2" d="M221.12,353.22c8.94.21,17.92.72,26.89,1.39l-29.05,21.11v94.36H0v-93.19c14.28-8.66,29.91-15.57,45.43-21.65,33.26-13.07,69.59-26.34,103.91-16.33,10.17,2.97,19.7,7.91,29.93,10.66,13.56,3.64,27.82,3.31,41.85,3.66Z"/>
        <path class="cls-2" d="M632.42,344.31v125.78h-223.83v-94.36l-16.84-11.81c14.08-.85,28.1-2.73,41.99-6.04,27.87-6.64,54.19-18.93,82.16-25.1,38.61-8.52,79.78-4.73,116.26,10.41.08.03.16.07.24.1.02.34.02.69.02,1.03Z"/>
        <path class="cls-5" d="M429.08,377.63h31.96l-29.28-19.3-116.77-76.97-19.42,12.8-14.57,9.6-74.57,49.15-37.49,24.72h31.97v77.07l-16.08,15.37h16.08v.02h18.05v-94.36l29.06-21.12,64.1-46.6,79.63,55.89,16.85,11.83v94.36h20.48v-.02h16.08l-16.08-15.37v-77.07Z"/>
        <path class="cls-3" d="M341.57,457.16c6.83,20.7,34.56,33.83,54.66,38.74,35.62,8.7,67.25-4.73,99.91,4.88,10.59,3.12,20.94,9.59,31.91,12.13l21.57,3.46c-22.68,9.69-44.1-4.57-66.23-7.39-12.39-1.58-24.6-.16-37.02-.17l21.13,13.02c15.17,12.14,28.95,30.01,50.24,29.51-.47,2.67-3.04,2.65-5.09,3.24-20.87,6.02-35.33-14.1-50.91-23.95-20.76-13.14-43.82-14.3-67-20.31l20.47,30.39c16.3,19,42.35,23.83,44.82,53.12-3.92,1.09-3.27-2.71-5.39-5.95-13.58-20.77-20.23-17.23-37.03-29.82-16.21-12.15-22.59-33.01-36.53-45.48-16.24-14.52-42.98-19.2-57.71-37.19.15,16.32.55,35.16,8.81,49.65,13.72,24.06,44.29,25.99,64.79,43.04,12.19,10.13,19.55,24.1,28.16,37.15-10.93-1.44-14.61-12.94-21.21-19.8-4.57-4.75-30.58-24.75-36.52-20.42,9.86,17.21,1.47,41.97,19.74,55.42-2.91,1.95-8.06-1.48-10.52-3.15-18.05-12.27-9.79-36.53-19.48-51.9-6.27-9.95-16.44-12.61-24.71-19.33-6.22-5.06-10.05-11.62-15.13-17.5.16,6.77-9.92,15.87-10.19,21.68-.87,18.85,16.38,35.47,18.89,53.88,1.32,9.64,1.47,22.21-3.42,30.75-4.11.55-1.68-2.55-1.53-4.58.36-5.03,1.22-8.83.62-14.25-2.39-21.66-24.53-36.07-24.14-58.62l-12.41,17.18c-9.36,15.68-4.87,32.57-4.29,49.64-2.56-.43-2.72-2.96-3.45-4.89-7.32-19.27-7.87-37.11,1.21-55.83,6.91-14.24,23.62-25.91,26.18-42.16,2.31-14.6-.93-31.26-1.17-45.95-21.69,20.55-43.52,30.79-51.17,61.96-3.35,13.65-2.34,26.96-5.45,40.11-2.87,12.16-10.82,22.28-13.25,34.6-1.91.45-2.58-3.02-2.7-4.2-.94-9.13,5.4-17.15,7.16-25.52,1.66-7.89,1.56-17.09.1-24.95-14.36,6.7-27.43,13.02-36.13,26.88-4.6,7.32-5.84,16.27-14.74,20.19-2.84.89,2.69-6.64,3.06-7.57,3.86-9.62,4.57-16.28,11.41-25.04,9.18-11.75,22.41-16.28,33.16-26.07l12.35-36.99c-15.68,3.53-45.22,6.16-57.59,16.05-18.07,14.45-9.01,51.12-36.56,50.01,15.58-11.45,15.08-24.08,16.68-41.77-16.8,11.05-34.4,27.4-56.17,23.55,7.9-4.3,15.78-6.15,23.27-11.66,10.84-7.96,20.02-20.36,32.42-26.81l17.19-6.32c-15.71-.9-32.13-5.87-47.89-4.63-19.59,1.55-43.61,19.25-62.96,6.88,29.11.27,46.53-19.34,76.67-17.43,36.99,2.35,57.87,11.1,95.22-5.06,14.08-6.09,36.32-18.89,40.72-34.45h53.15Z"/>
        <rect class="cls-5" x="288.42" y="371.29" width="53.15" height="85.88"/>
        <path class="cls-5" d="M513.79,102.69c-1.21-1.21-3.06-1.45-4.53-.6-1.84,1.06-5.46,1.68-10.39,1.48-3.16-.13-6.83-.56-10.87-1.16-2.25-.33-4.61-.73-7.06-1.16-13.75-2.4-30.44-5.97-47.44-6.97-4.24-.24-8.52-.34-12.77-.2-12.77.4-25.38,2.8-36.63,8.96-14.78,8.09-26.89,22.71-33.5,46.46-3.87,3.39-7.51,6.97-10.92,10.78,1.08-5.41,1.6-10.95,1.27-16.6-.31-6.51-1.4-12.9-3.19-19.1-1.52-5.29-1.99-10.84-1.31-16.3.87-6.97,2.66-13.84,5.37-20.45,21.54-7.16,39.75-35.23,39.75-84.03C381.59,1.7,379.91,0,377.83,0h-.12c-1.67.04-3.11,1.19-3.52,2.82-5.1,19.59-16.55,28.75-26.46,38.95-4.96,5.1-9.57,10.5-12.15,17.56-2.49,6.78-2.92,14.92-.49,25.1-2.74,6.55-4.64,13.33-5.72,20.21,0,0-2.52,8.13.92,21.21,0,.02.01.04.02.07.24.76.45,1.52.65,2.29,0,.01.01.03.01.04,1.37,5.16,2.21,10.43,2.45,15.77v.04c1.17,20.2-10.19,40.27-20.56,58.24-3.02,5.24-6.11,10.77-8.72,16.55-.94-6.9-2.46-13.73-4.55-20.46,19.21-34.71,9.06-70.01-18.37-95.53-27.8-25.89-72.97-42.67-124.07-42.67-2.09.01-3.77,1.7-3.77,3.78,0,1.34.73,2.58,1.89,3.26,6.75,3.89,12.8,15.84,18.51,31.52,5.71,15.68,11.4,34.77,19.68,52.52,8.29,17.74,19.21,34.28,35.73,44.47,15.83,9.76,36.65,13.29,63.8,6.74,3.37,11.51,4.97,23.34,4.79,35.22-.01.34.02.69.1,1.02-.6,3.76-.86,7.61-.64,11.55h0c.93,21.34,12.23,41.03,28.35,54.3,1.59,1.34,3.96,1.14,5.3-.46,1.34-1.59,1.12-3.97-.46-5.31-.01-.01-.04-.02-.05-.04-14.61-12.03-24.79-29.96-25.61-48.82v-.03c-.82-15.2,6.65-29.98,14.64-43.84,3.59-6.21,7.42-12.82,10.86-19.78,6.43-11.44,14.7-21.77,24.63-30.59,28.42,7.62,50.57,13.38,74.33,8.46,15.73-3.25,31.84-11.13,50.76-25.8,10.32-7.99,21.46-18,33.82-30.36,1.47-1.48,1.46-3.87-.01-5.32ZM213.49,104.45c34.32,1.84,62.24,44.52,66.17,75.98-16.38-28.42-35.35-61.66-66.17-75.98ZM394.91,137.1c-6.66,2.57-13.23,5.47-20.16,8.29,17.48-20.42,57.88-35.43,81.94-19.03-21.49-3.25-41.95,3.26-61.78,10.73Z"/>
      </g>
      <g>
        <path class="cls-5" d="M697.62,269.48c0-35.33,17.84-61.06,39.62-61.06,6.52,0,12.01,2.74,16.81,7.03,1.89,1.54,3.43,2.4,4.97,2.4,1.72,0,4.12-1.72,5.32-9.43h2.57l1.03,47h-3.09c-5.49-30.36-15.78-43.91-26.93-43.91-12.69,0-16.98,21.1-16.98,57.29s2.23,57.12,16.64,57.12c7.38,0,10.46-6,10.46-21.78v-16.64c0-6.69-2.74-10.46-8.23-10.46h-3.26v-3.09h39.79v3.09h-.86c-5.15,0-7.2,2.23-7.2,10.46v41.17h-2.92c-1.71-6.86-3.43-12.52-6.35-12.52-1.37,0-2.74,1.89-4.12,3.43-4.46,5.49-9.78,9.43-17.67,9.43-22.64,0-39.62-25.73-39.62-59.52Z"/>
        <path class="cls-5" d="M780.46,324.37h.86c6,0,8.23-3.26,8.23-10.46v-90.22c0-7.2-2.23-10.46-8.23-10.46h-.86v-3.09h39.62v3.09h-1.03c-5.83,0-8.06,3.26-8.06,10.46v41.68h24.18v-41.68c0-6.86-2.06-10.46-7.89-10.46h-1.2v-3.09h39.79v3.09h-1.03c-6,0-8.23,3.43-8.23,10.46v90.22c0,7.2,2.23,10.46,8.23,10.46h1.03v3.09h-39.79v-3.09h1.2c5.83,0,7.89-3.26,7.89-10.46v-44.77h-24.18v44.77c0,7.2,2.23,10.46,8.06,10.46h1.03v3.09h-39.62v-3.09Z"/>
        <path class="cls-5" d="M880.98,307.39l29.5-100h4.46l31.22,104.8c2.23,7.89,4.8,11.66,11.66,12.18v3.09h-44.25v-3.09h3.95c4.63,0,6.52-3.26,6.69-6.69,0-3.09-.51-6.17-1.71-10.81l-5.49-19.04h-25.73l-3.77,13.04c-1.71,6.18-2.92,12.18-2.74,15.61.17,4.8,2.4,7.89,7.38,7.89h2.23v3.09h-25.9v-3.09c6.35-.69,9.26-6,12.52-16.98ZM915.97,284.06l-12.01-40.65-11.66,40.65h23.67Z"/>
        <path class="cls-5" d="M1004.99,298.12c-2.4-20.07-5.15-26.41-14.06-26.41h-.34v42.37c0,8.06,2.23,10.29,8.06,10.29h.86v3.09h-39.11v-3.09h.86c6,0,8.23-2.23,8.23-10.29v-90.56c0-8.06-2.23-10.29-8.23-10.29h-.86v-3.09h37.91c20.07,0,33.96,7.72,33.96,29.67,0,19.9-17.84,28.99-31.73,30.53v.17c12.52,3.26,19.9,12.35,23.16,24.87,4.63,17.5,6,20.07,9.78,20.07,3.26,0,4.46-3.77,4.8-12.01h3.09c0,16.64-6.35,25.56-16.64,25.56s-16.81-4.8-19.73-30.87ZM1009.62,240.49c0-19.55-3.26-27.27-11.49-27.27h-1.2c-3.43,0-6.35,2.06-6.35,10.12v44.94h2.4c14.07,0,16.64-9.26,16.64-27.79Z"/>
        <path class="cls-5" d="M1042.55,324.37h.86c6,0,8.23-3.26,8.23-10.46v-90.22c0-6.86-2.23-10.46-8.23-10.46h-.86v-3.09h67.24l1.2,44.08h-2.92c-1.71-20.58-9.26-40.82-23.5-40.82h-3.43c-5.83,0-8.06,3.09-8.06,10.29v41.17h1.89c11.15,0,14.75-10.29,14.92-25.21h2.92v55.23h-2.92c-.17-14.75-3.6-26.59-14.92-26.59h-1.89v45.63c0,7.55,2.23,10.29,8.06,10.29h4.29c15.09,0,22.98-23.33,25.04-44.42h3.09l-2.23,47.68h-68.78v-3.09Z"/>
        <path class="cls-5" d="M1120.6,324.37h.86c6,0,8.23-3.77,8.23-10.46v-90.22c0-6.35-2.23-10.46-8.23-10.46h-.86v-3.09h41.34v3.09h-2.74c-5.83,0-8.06,3.77-8.06,10.46v90.22c0,6.69,2.06,10.29,6.86,10.29h2.23c14.75,0,21.61-18.35,24.01-46.65h3.26l-2.06,49.91h-64.84v-3.09Z"/>
        <path class="cls-5" d="M1198.47,288.69v-65.01c0-8.06-2.92-10.46-8.23-10.46h-1.03v-3.09h40.82v3.09h-2.06c-5.66,0-8.06,2.92-8.06,10.46v65.35c0,21.44,4.29,31.9,17.67,31.9,11.84,0,19.73-9.78,19.73-32.25v-54.2c0-15.44-2.74-21.27-11.49-21.27h-.51v-3.09h28.47v3.09h-.69c-8.06,0-11.32,5.15-11.32,21.27v54.2c0,26.59-10.98,40.82-29.5,40.82-22.3,0-33.79-14.24-33.79-40.82Z"/>
        <path class="cls-3" d="M1310.3,269.14c0-35.16,15.09-61.23,34.65-61.23s34.48,26.24,34.48,60.55-14.92,61.23-34.82,61.23-34.3-25.73-34.3-60.55ZM1369.82,269.14c0-31.05-5.66-59.69-25.21-59.69s-24.7,27.96-24.7,59,5.66,59.69,25.04,59.69,24.87-27.96,24.87-59Z"/>
        <path class="cls-3" d="M1434.49,302.58c-3.09-30.53-7.55-31.05-19.21-31.05h-8.92v43.05c0,8.06,2.06,10.63,8.06,10.63h3.95v2.23h-31.73v-2.23h3.43c6.35,0,7.89-2.57,7.89-10.63v-91.94c0-8.06-1.89-10.29-7.89-10.29h-3.43v-2.23h31.05c18.87-.34,31.73,9.95,31.73,29.16,0,15.78-7.38,26.42-22.47,31.05v.34c6.35,3.09,12.01,8.4,14.41,24.53,3.43,23.16,5.49,25.56,9.78,25.56,3.43,0,6.35-5.15,5.15-19.9h2.4c1.54,19.9-3.77,28.13-9.95,28.13-7.2,0-12.18-5.83-14.24-26.42ZM1439.97,239.63c0-9.95-1.54-27.27-23.33-27.27h-1.89c-6,0-8.4,1.72-8.4,9.95v47h13.55c16.64,0,20.07-17.5,20.07-29.67Z"/>
        <path class="cls-3" d="M1463.99,325.22h3.43c5.83,0,7.89-1.54,7.89-10.29v-92.28c0-8.75-2.06-10.29-7.89-10.29h-3.43v-2.23h31.05v2.23h-2.92c-6,0-8.4,1.54-8.4,10.29v92.28c0,8.75,2.4,10.29,8.4,10.29h2.92v2.23h-31.05v-2.23Z"/>
        <path class="cls-3" d="M1557.81,319.91c-1.71,0-3.09,1.2-4.8,2.74-4.46,3.6-9.26,6.35-15.44,6.35-18.52,0-34.82-23.5-34.82-60.21,0-39.45,17.32-60.38,33.62-60.38,8.23,0,13.55,4.29,18.7,8.92,1.54,1.2,2.74,2.4,3.95,2.4,1.71,0,2.57-3.26,3.95-11.66h1.89l1.03,45.63h-2.23c-3.95-30.36-15.27-43.74-27.1-43.74-16.47,0-24.18,21.61-24.18,58.15s7.72,59.35,25.21,59.35c12.86,0,18.87-12.01,18.87-23.5v-14.41c0-9.26-2.4-10.46-7.55-10.46h-2.92v-2.23h27.96v2.23h-.86c-6.17,0-8.75,2.06-8.75,10.46v39.62h-1.37c-1.72-6.86-3.26-9.26-5.15-9.26Z"/>
        <path class="cls-3" d="M1579.08,325.22h3.43c5.83,0,7.89-1.54,7.89-10.29v-92.28c0-8.75-2.06-10.29-7.89-10.29h-3.43v-2.23h31.05v2.23h-2.92c-6,0-8.4,1.54-8.4,10.29v92.28c0,8.75,2.4,10.29,8.4,10.29h2.92v2.23h-31.05v-2.23Z"/>
        <path class="cls-3" d="M1630.2,225.4v79.42c0,16.98,1.54,20.41,11.15,20.41h1.03v2.23h-26.59v-2.23h.34c8.58,0,11.32-3.26,11.32-20.41v-84.05c-4.46-6.86-5.66-8.4-12.18-8.4v-2.23h16.64l48.71,98.8v-75.99c0-16.47-1.37-20.58-11.15-20.58h-1.03v-2.23h26.59v2.23h-.51c-8.58,0-11.15,4.8-11.15,20.58v97.25h-1.71l-51.46-104.8Z"/>
        <path class="cls-3" d="M1703.09,282h2.23c3.09,33.96,14.92,45.63,30.53,45.63,11.32,0,20.07-9.43,20.07-25.9s-14.58-23.67-24.53-28.13c-9.95-4.46-27.62-8.92-27.62-34.82,0-16.64,9.61-30.36,22.98-30.36,7.03,0,11.15,2.4,16.64,8.06,1.71,1.72,3.09,3.6,4.8,3.6,2.06,0,3.6-2.57,5.32-11.32h1.89l.86,46.65h-2.23c-5.15-34.48-16.12-45.28-27.1-45.28-12.18,0-18.52,12.35-18.52,25.56,0,12.18,5.15,20.93,24.53,28.3,16.81,6.35,27.1,14.92,27.1,34.13s-10.98,31.22-24.01,31.22-17.84-5.49-21.1-8.4c-1.37-1.37-2.57-2.57-4.12-2.57-2.4,0-3.94,3.95-4.97,10.98h-1.89l-.86-47.34Z"/>
      </g>
      <path class="cls-6" d="M699.97,403.12v20.88h-2.36v-43.05h9.38c7.49,0,12.27,4.36,12.27,11.15,0,6.25-4.78,11.09-12.27,11.09h-3.95l18.99,20.82h-3.12l-18.93-20.88ZM706.76,401c6.49,0,10.14-3.6,10.14-8.91s-3.66-8.91-10.14-8.91h-6.78v17.81h6.78ZM724.09,408.49c0-9.26,6.61-16.16,15.51-16.16s15.45,6.9,15.45,16.16-6.6,16.1-15.45,16.1-15.51-6.9-15.51-16.1ZM739.6,422.35c7.55,0,13.15-5.9,13.15-13.86s-5.6-13.92-13.15-13.92-13.21,5.9-13.21,13.92,5.6,13.86,13.21,13.86ZM760.01,408.49c0-9.26,6.61-16.16,15.51-16.16s15.45,6.9,15.45,16.16-6.6,16.1-15.45,16.1-15.51-6.9-15.51-16.1ZM775.52,422.35c7.55,0,13.15-5.9,13.15-13.86s-5.6-13.92-13.15-13.92-13.21,5.9-13.21,13.92,5.6,13.86,13.21,13.86ZM798.52,395.1h-3.89v-2.18h3.89v-9.02l2.24-1.18v10.2h4.13v2.18h-4.13v28.9h-2.24v-28.9ZM808.42,408.55c0-8.79,6.31-16.04,15.22-16.04,7.43,0,13.86,5.01,14.57,15.22h-27.48v.94c0,7.49,5.25,13.56,13.21,13.56,5.54,0,9.91-2.89,12.21-7.43l1.95,1c-2,3.95-6.61,8.67-14.15,8.67-9.26,0-15.51-7.08-15.51-15.92ZM835.67,405.54c-1.36-7.61-6.61-10.79-12.09-10.79-6.66,0-11.44,4.72-12.56,10.79h24.65ZM842.98,408.49c0-9.44,6.78-16.16,15.39-16.16,5.78,0,10.73,3.01,12.74,7.37-.06-2.24-.12-4.54-.12-6.78v-14.27h2.24v45.35h-2.12v-6.78c-2.06,4.36-7.02,7.37-12.74,7.37-8.61,0-15.39-6.72-15.39-16.1ZM858.49,422.35c6.9,0,12.8-4.78,12.8-13.86s-5.9-13.92-12.8-13.92c-7.61,0-13.21,5.9-13.21,13.92s5.6,13.86,13.21,13.86ZM898,378.65h2.24v8.02h-2.24v-8.02ZM898,392.92h2.24v31.08h-2.24v-31.08ZM920.29,392.33c7.08,0,11.21,4.66,11.21,12.74v18.93h-2.24v-18.87c0-6.9-3.18-10.62-8.96-10.62s-8.96,3.72-8.96,10.62v18.87h-2.24v-18.93c0-8.08,4.07-12.74,11.21-12.74ZM957.44,380.95h9.79c12.15,0,21.7,8.43,21.7,21.53s-9.55,21.53-21.7,21.53h-9.79v-43.05ZM967.23,421.76c11.15,0,19.29-7.78,19.29-19.28s-8.14-19.29-19.29-19.29h-7.43v38.57h7.43ZM994.54,408.49c0-9.44,6.78-16.16,15.39-16.16,5.72,0,10.67,3.01,12.74,7.37v-6.78h2.12v31.08h-2.12v-6.78c-2.06,4.36-7.02,7.37-12.74,7.37-8.61,0-15.39-6.72-15.39-16.1ZM1010.05,422.35c6.9,0,12.8-4.78,12.8-13.86s-5.9-13.92-12.8-13.92c-7.61,0-13.21,5.9-13.21,13.92s5.6,13.86,13.21,13.86ZM1042.13,392.92h3.07v2.18h-2.89c-4.48,0-6.31,1.59-6.31,6.49v22.41h-2.24v-22.53c0-5.78,2.42-8.55,8.37-8.55ZM1043.66,433.38h.47c4.36,0,6.19-1.47,6.19-5.9v-34.56h2.24v34.68c0,5.31-2.42,7.96-8.26,7.96h-.65v-2.18ZM1050.32,378.65h2.24v8.02h-2.24v-8.02ZM1059.64,408.55c0-8.79,6.31-16.04,15.22-16.04,7.43,0,13.86,5.01,14.57,15.22h-27.48v.94c0,7.49,5.25,13.56,13.21,13.56,5.54,0,9.91-2.89,12.21-7.43l1.95,1c-2,3.95-6.61,8.67-14.15,8.67-9.26,0-15.51-7.08-15.51-15.92ZM1086.89,405.54c-1.36-7.61-6.61-10.79-12.09-10.79-6.66,0-11.44,4.72-12.56,10.79h24.65ZM1094.2,408.55c0-8.79,6.31-16.04,15.22-16.04,7.43,0,13.86,5.01,14.57,15.22h-27.48v.94c0,7.49,5.25,13.56,13.21,13.56,5.54,0,9.91-2.89,12.21-7.43l1.95,1c-2,3.95-6.61,8.67-14.15,8.67-9.26,0-15.51-7.08-15.51-15.92ZM1121.44,405.54c-1.36-7.61-6.61-10.79-12.09-10.79-6.66,0-11.44,4.72-12.56,10.79h24.65ZM1130.88,378.65h2.24v45.35h-2.24v-45.35ZM1142.32,378.65h2.24v8.02h-2.24v-8.02ZM1142.32,392.92h2.24v31.08h-2.24v-31.08ZM1164.61,392.33c7.08,0,11.21,4.66,11.21,12.74v18.93h-2.24v-18.87c0-6.9-3.18-10.62-8.96-10.62s-8.96,3.72-8.96,10.62v18.87h-2.24v-18.93c0-8.08,4.07-12.74,11.21-12.74ZM1191.38,433.38h5.25c9.79,0,13.8-4.07,13.98-11.85l.12-4.72c-2.06,4.36-7.02,7.25-12.68,7.25-8.67,0-15.45-6.61-15.45-15.81s6.78-15.92,15.39-15.92c5.72,0,10.67,3.01,12.74,7.37v-6.78h2.12v28.6c0,8.14-4.42,14.04-16.34,14.04h-5.13v-2.18ZM1198.28,421.82c6.66,0,12.62-4.25,12.62-13.33s-5.9-13.92-12.8-13.92c-7.61,0-13.21,5.84-13.21,13.68s5.54,13.56,13.39,13.56ZM1221.51,418.46h2.83v5.54h-2.83v-5.54ZM1245.22,402.59c0-13.21,9.97-22.23,21.94-22.23,6.25,0,12.21,2.42,16.04,6.43l-1.65,1.89c-3.36-3.72-8.61-6.02-14.39-6.02-10.97,0-19.52,8.37-19.52,19.93s8.38,19.7,19.34,19.7c9.91,0,17.58-6.84,18.11-18.81h-19.17v-2.24h21.53v1c0,14.33-9.2,22.35-20.46,22.35-11.97,0-21.76-9.02-21.76-22ZM1302.42,392.92h3.07v2.18h-2.89c-4.48,0-6.31,1.59-6.31,6.49v22.41h-2.24v-22.53c0-5.78,2.42-8.55,8.37-8.55ZM1306.73,408.49c0-9.26,6.61-16.16,15.51-16.16s15.45,6.9,15.45,16.16-6.6,16.1-15.45,16.1-15.51-6.9-15.51-16.1ZM1322.24,422.35c7.55,0,13.15-5.9,13.15-13.86s-5.6-13.92-13.15-13.92-13.21,5.9-13.21,13.92,5.6,13.86,13.21,13.86ZM1340.76,392.92h2.42l8.85,27.66,9.55-27.66h2.06l9.44,27.66,8.79-27.66h2.36l-10.14,31.08h-2.06l-9.44-27.54-9.61,27.54h-2.12l-10.08-31.08ZM1400.38,392.33c7.08,0,11.21,4.66,11.21,12.74v18.93h-2.24v-18.87c0-6.9-3.18-10.62-8.96-10.62s-8.96,3.72-8.96,10.62v18.87h-2.24v-18.93c0-8.08,4.07-12.74,11.21-12.74ZM1431.57,392.92h2.42l8.85,27.66,9.55-27.66h2.06l9.44,27.66,8.79-27.66h2.36l-10.14,31.08h-2.06l-9.44-27.54-9.61,27.54h-2.12l-10.08-31.08ZM1480.69,378.65h2.24v8.02h-2.24v-8.02ZM1480.69,392.92h2.24v31.08h-2.24v-31.08ZM1493.14,395.1h-3.89v-2.18h3.89v-9.02l2.24-1.18v10.2h4.13v2.18h-4.13v28.9h-2.24v-28.9ZM1505.76,378.65h2.24v14.57c0,1.59,0,2.95-.06,4.36,1.65-3.3,4.84-5.25,9.2-5.25,6.9,0,11.03,4.66,11.03,12.74v18.93h-2.24v-18.87c0-6.84-3.18-10.62-8.96-10.62s-8.96,3.72-8.96,10.62v18.87h-2.24v-45.35ZM1554.11,380.95h9.73c8.08,0,13.09,4.48,13.09,11.68s-5.01,11.68-13.09,11.68h-7.37v19.7h-2.36v-43.05ZM1563.61,402.06c6.96,0,10.91-3.36,10.91-9.44s-3.95-9.44-10.91-9.44h-7.14v18.87h7.14ZM1593.92,424.59c-7.08,0-11.21-4.66-11.21-12.74v-18.93h2.24v18.87c0,6.9,3.18,10.62,8.96,10.62s8.96-3.72,8.96-10.62v-18.87h2.24v18.93c0,8.08-4.07,12.74-11.21,12.74ZM1622.11,392.92h3.07v2.18h-2.89c-4.48,0-6.31,1.59-6.31,6.49v22.41h-2.24v-22.53c0-5.78,2.42-8.55,8.37-8.55ZM1630.3,392.92h2.12v6.78c2.06-4.36,7.02-7.37,12.74-7.37,8.61,0,15.39,6.72,15.39,16.16s-6.78,16.1-15.39,16.1c-5.78,0-10.73-3.01-12.74-7.37.06,2.24.12,4.54.12,6.78v11.56h-2.24v-42.64ZM1644.99,422.35c7.67,0,13.27-5.9,13.27-13.86s-5.6-13.92-13.27-13.92c-6.84,0-12.74,4.78-12.74,13.92s5.9,13.86,12.74,13.86ZM1665.51,408.49c0-9.26,6.61-16.16,15.51-16.16s15.45,6.9,15.45,16.16-6.6,16.1-15.45,16.1-15.51-6.9-15.51-16.1ZM1681.02,422.35c7.55,0,13.15-5.9,13.15-13.86s-5.6-13.92-13.15-13.92-13.21,5.9-13.21,13.92,5.6,13.86,13.21,13.86ZM1701.54,424v-2.18c2.3.18,4.54.29,5.84.29,5.31,0,7.96-1.89,7.96-5.72,0-2.71-1.47-4.54-5.13-6.72l-2.24-1.36c-4.48-2.71-6.55-5.25-6.55-8.55,0-4.31,3.54-7.14,9.14-7.14,1.18,0,2.95.12,4.6.29v2.06c-1.83-.18-3.18-.24-4.13-.24-4.78,0-7.37,1.83-7.37,5.01,0,2.48,1.65,4.31,5.37,6.6l2.42,1.47c4.25,2.59,6.13,5.01,6.13,8.49,0,4.95-3.77,7.96-10.2,7.96-1.3,0-3.54-.12-5.84-.29ZM1721.83,408.55c0-8.79,6.31-16.04,15.22-16.04,7.43,0,13.86,5.01,14.57,15.22h-27.48v.94c0,7.49,5.25,13.56,13.21,13.56,5.54,0,9.91-2.89,12.21-7.43l1.95,1c-2,3.95-6.61,8.67-14.15,8.67-9.26,0-15.51-7.08-15.51-15.92ZM1749.07,405.54c-1.36-7.61-6.61-10.79-12.09-10.79-6.66,0-11.44,4.72-12.56,10.79h24.65Z"/>
    </g>
  </g>
</svg>